<svg width="501" height="143" viewBox="0 0 501 143" fill="none" xmlns="http://www.w3.org/2000/svg">
<path d="M295.295 113.887V140.257C295.295 140.485 295.295 140.713 295.295 140.941C295.304 141.113 295.276 141.285 295.214 141.446C295.152 141.607 295.057 141.753 294.935 141.875C294.814 141.998 294.668 142.093 294.507 142.156C294.346 142.219 294.173 142.248 294.001 142.241C293.798 142.241 293.595 142.241 293.392 142.241H287.468C287.291 142.241 287.113 142.241 286.935 142.241C286.639 142.234 286.355 142.122 286.136 141.923C285.917 141.725 285.777 141.454 285.742 141.16C285.725 140.933 285.725 140.704 285.742 140.477V100.157C285.742 99.9042 285.742 99.6511 285.742 99.3979C285.736 99.2253 285.766 99.0533 285.829 98.8925C285.893 98.7318 285.988 98.5856 286.11 98.4631C286.232 98.3406 286.378 98.2443 286.539 98.1801C286.7 98.1159 286.872 98.0852 287.045 98.0899H295.143C295.295 98.0815 295.448 98.0815 295.6 98.0899C295.804 98.0985 296.002 98.1559 296.179 98.2573C296.356 98.3586 296.505 98.5009 296.615 98.6722L297.064 99.381L307.421 115.997C307.539 116.191 307.666 116.376 307.785 116.562C308.064 116.562 308.106 116.317 308.199 116.165C309.46 114.165 310.738 112.157 311.956 110.157L318.887 99.0351C318.963 98.9 319.047 98.7735 319.132 98.6469C319.24 98.4889 319.381 98.3569 319.547 98.2605C319.712 98.1642 319.897 98.1059 320.088 98.0899C320.266 98.0899 320.443 98.0899 320.621 98.0899H328.33C328.507 98.0773 328.685 98.0773 328.863 98.0899C329.144 98.1187 329.407 98.2422 329.609 98.4401C329.81 98.638 329.938 98.8984 329.971 99.1785C329.971 99.4317 329.971 99.6848 329.971 99.938V140.291C329.971 140.519 329.971 140.755 329.971 140.983C329.975 141.151 329.944 141.317 329.881 141.472C329.818 141.628 329.723 141.769 329.604 141.886C329.484 142.004 329.342 142.096 329.185 142.157C329.029 142.218 328.862 142.246 328.694 142.241C328.541 142.249 328.389 142.249 328.237 142.241C326.121 142.241 324.006 142.198 321.899 142.241C321.671 142.288 321.435 142.28 321.211 142.215C320.988 142.151 320.783 142.033 320.616 141.871C320.449 141.709 320.324 141.509 320.253 141.288C320.181 141.067 320.166 140.832 320.207 140.603C320.207 138.123 320.207 135.633 320.207 133.144C320.207 126.955 320.207 120.79 320.207 114.646C320.261 114.364 320.237 114.073 320.139 113.803C319.792 113.87 319.724 114.208 319.572 114.435C315.815 120.112 312.064 125.791 308.318 131.473C307.633 132.502 307.7 132.511 307.023 131.473C303.272 125.797 299.521 120.12 295.769 114.444C295.67 114.216 295.505 114.022 295.295 113.887V113.887Z" fill="#A7CF39"/>
<path d="M413.065 120.511C413.268 120.292 413.479 120.072 413.683 119.845C416.96 116.267 420.235 112.686 423.507 109.102C423.702 108.872 423.948 108.69 424.225 108.57C424.502 108.45 424.804 108.395 425.106 108.41C427.526 108.41 429.937 108.41 432.357 108.41C432.56 108.393 432.764 108.393 432.967 108.41C433.176 108.443 433.372 108.529 433.538 108.66C433.703 108.792 433.832 108.964 433.91 109.16C433.989 109.355 434.015 109.568 433.986 109.777C433.957 109.986 433.874 110.184 433.745 110.351C433.559 110.587 433.331 110.798 433.119 111.018L423.566 120.866C423.43 121.009 423.295 121.161 423.151 121.304C422.711 121.743 422.779 121.701 423.092 122.191L431.156 134.646L434.541 139.886C434.675 140.072 434.796 140.267 434.904 140.468C434.997 140.643 435.045 140.838 435.044 141.035C435.044 141.233 434.994 141.427 434.901 141.602C434.807 141.776 434.672 141.924 434.508 142.034C434.343 142.144 434.154 142.212 433.957 142.232C433.83 142.241 433.703 142.241 433.576 142.232H425.715C425.524 142.228 425.336 142.179 425.167 142.09C424.998 142 424.853 141.873 424.742 141.717C424.607 141.532 424.488 141.338 424.361 141.144L416.695 129.119C416.576 128.924 416.441 128.739 416.331 128.57C416.221 128.401 416.026 128.663 415.933 128.764C415.036 129.701 414.148 130.646 413.243 131.574C413.132 131.685 413.045 131.817 412.987 131.962C412.929 132.107 412.901 132.262 412.904 132.418C412.904 135.059 412.904 137.692 412.904 140.333C412.904 140.561 412.904 140.789 412.904 141.017C412.89 141.313 412.768 141.593 412.56 141.804C412.353 142.016 412.075 142.144 411.779 142.165C411.601 142.165 411.423 142.165 411.246 142.165C409.156 142.165 407.066 142.122 404.984 142.165C404.753 142.203 404.517 142.185 404.294 142.114C404.071 142.042 403.869 141.919 403.703 141.754C403.538 141.589 403.414 141.387 403.343 141.165C403.271 140.943 403.254 140.707 403.292 140.477C403.292 133.22 403.292 125.963 403.292 118.705V98.0562C403.279 97.8285 403.279 97.6003 403.292 97.3727C403.305 97.0652 403.436 96.7745 403.658 96.5608C403.88 96.3472 404.176 96.2269 404.485 96.225H411.508C412.464 96.225 412.879 96.6638 412.904 97.6343V120.418L413.065 120.511Z" fill="#A7CF39"/>
<path d="M458.309 128.663H447.309C447.115 128.663 447.047 128.756 447.089 128.958C447.409 130.475 448.172 131.864 449.282 132.95C450.391 134.035 451.798 134.769 453.326 135.059C454.867 135.365 456.458 135.33 457.984 134.955C459.511 134.58 460.936 133.875 462.16 132.891C462.32 132.764 462.473 132.629 462.633 132.511C462.881 132.331 463.181 132.237 463.487 132.245C463.793 132.252 464.088 132.361 464.326 132.553C464.427 132.629 464.52 132.713 464.613 132.798L467.643 135.473C467.78 135.585 467.91 135.706 468.032 135.836C468.245 136.075 468.369 136.379 468.385 136.698C468.4 137.018 468.305 137.333 468.117 137.591C467.993 137.75 467.857 137.899 467.71 138.038C465.576 140.207 462.862 141.721 459.892 142.401C456.063 143.361 452.032 143.138 448.333 141.76C445.708 140.849 443.367 139.271 441.542 137.181C439.716 135.091 438.47 132.562 437.925 129.844C436.979 125.939 437.299 121.835 438.839 118.123C439.999 115.159 442.008 112.6 444.615 110.767C447.223 108.933 450.314 107.905 453.503 107.811C455.593 107.708 457.684 107.974 459.68 108.596C461.532 109.168 463.251 110.106 464.733 111.352C466.216 112.599 467.432 114.129 468.311 115.853C469.27 117.678 469.941 119.639 470.3 121.667C470.6 123.366 470.719 125.091 470.655 126.815C470.668 127.017 470.668 127.22 470.655 127.422C470.623 127.741 470.48 128.038 470.251 128.263C470.023 128.488 469.723 128.627 469.403 128.654C469.174 128.654 468.946 128.654 468.717 128.654L458.309 128.663ZM454.138 122.68H460.383C460.586 122.68 460.789 122.68 460.992 122.68C461.195 122.68 461.313 122.57 461.271 122.342C461.122 121.365 460.838 120.414 460.425 119.515C458.986 116.444 456.109 114.933 452.479 115.71C451.587 115.913 450.749 116.304 450.019 116.855C449.29 117.406 448.686 118.106 448.249 118.908C447.683 119.87 447.275 120.915 447.039 122.005C446.886 122.68 446.962 122.68 447.614 122.68H454.138Z" fill="#A7CF39"/>
<path d="M359.24 138.806C359.088 138.806 359.029 138.916 358.944 139C356.858 141.123 354.084 142.438 351.117 142.713C348.992 143.001 346.83 142.84 344.771 142.241C342.694 141.667 340.853 140.45 339.516 138.764C338.452 137.392 337.787 135.754 337.595 134.03C337.394 132.467 337.492 130.881 337.883 129.355C338.176 128.168 338.708 127.053 339.447 126.078C340.186 125.103 341.116 124.289 342.181 123.684C343.635 122.831 345.237 122.258 346.903 121.996C350.775 121.313 354.755 121.559 358.512 122.714C359.469 123.009 359.452 123.136 359.409 122.005C359.384 121.432 359.284 120.865 359.113 120.317C358.91 119.622 358.559 118.978 358.085 118.429C357.61 117.88 357.023 117.439 356.363 117.136C355.464 116.705 354.49 116.453 353.495 116.393C351.004 116.206 348.5 116.446 346.091 117.102C345.481 117.271 344.872 117.456 344.271 117.651C344.033 117.737 343.781 117.783 343.527 117.786C343.322 117.783 343.121 117.727 342.946 117.621C342.77 117.516 342.626 117.366 342.528 117.186C342.443 117.029 342.377 116.862 342.334 116.689L340.861 112.208C340.807 112.064 340.762 111.918 340.726 111.769C340.67 111.52 340.694 111.26 340.796 111.027C340.898 110.793 341.072 110.598 341.293 110.469C341.45 110.385 341.615 110.315 341.784 110.258C344.374 109.199 347.11 108.534 349.898 108.284C351.749 108.11 353.611 108.078 355.466 108.191C357.683 108.279 359.86 108.804 361.872 109.735C363.181 110.339 364.357 111.196 365.332 112.256C366.306 113.316 367.06 114.559 367.55 115.912C368.292 117.916 368.659 120.038 368.633 122.174C368.633 128.362 368.633 134.55 368.633 140.738C368.633 140.848 368.633 140.949 368.633 141.051C368.633 141.372 368.505 141.679 368.279 141.907C368.052 142.135 367.744 142.264 367.423 142.266C367.296 142.266 367.169 142.266 367.042 142.266C365.003 142.266 362.972 142.224 360.933 142.266C360.711 142.3 360.485 142.281 360.273 142.21C360.061 142.14 359.868 142.021 359.711 141.862C359.554 141.703 359.437 141.509 359.37 141.296C359.303 141.083 359.287 140.857 359.325 140.637C359.325 140.156 359.325 139.675 359.325 139.194C359.333 139.034 359.376 138.865 359.24 138.806ZM352.539 136.173C352.792 136.173 353.046 136.173 353.3 136.123C354.676 136.01 355.999 135.545 357.142 134.772C357.791 134.346 358.338 133.783 358.744 133.122C359.151 132.461 359.407 131.72 359.494 130.95C359.547 130.496 359.567 130.039 359.553 129.583C359.553 128.444 359.739 128.646 358.58 128.207C357.285 127.745 355.933 127.461 354.561 127.363C353.497 127.276 352.426 127.316 351.371 127.481C350.591 127.59 349.836 127.83 349.137 128.19C348.511 128.482 347.97 128.93 347.567 129.49C347.164 130.05 346.912 130.704 346.835 131.389C346.684 132.254 346.835 133.145 347.263 133.913C347.692 134.681 348.371 135.279 349.188 135.608L349.687 135.793C350.605 136.1 351.572 136.228 352.539 136.173Z" fill="#A7CF39"/>
<path d="M479.37 125.313V117.473C479.37 116.537 479.438 116.629 478.524 116.629H476.832C476.68 116.642 476.527 116.642 476.375 116.629C476.122 116.59 475.887 116.47 475.708 116.288C475.528 116.106 475.412 115.87 475.376 115.617C475.368 115.465 475.368 115.313 475.376 115.161V109.904C475.381 109.853 475.381 109.803 475.376 109.752C475.366 109.574 475.394 109.397 475.459 109.231C475.523 109.064 475.622 108.914 475.75 108.789C475.877 108.665 476.03 108.569 476.197 108.508C476.365 108.447 476.544 108.422 476.722 108.436C477.207 108.436 477.689 108.436 478.169 108.436C478.548 108.471 478.93 108.451 479.303 108.377C479.435 107.994 479.467 107.585 479.396 107.187C479.396 105.263 479.396 103.33 479.396 101.406C479.396 100.225 479.81 99.8114 481.012 99.8114H487.426C487.653 99.8084 487.88 99.831 488.103 99.8789C488.334 99.9347 488.541 100.063 488.694 100.246C488.846 100.428 488.936 100.655 488.949 100.892C488.949 101.094 488.949 101.297 488.949 101.499V107.516C488.949 107.718 488.949 107.921 488.949 108.123C488.949 108.326 489.025 108.419 489.279 108.427H495.202C495.405 108.415 495.609 108.415 495.811 108.427C496.092 108.461 496.352 108.593 496.544 108.8C496.737 109.008 496.849 109.276 496.861 109.558V109.938C496.861 111.625 496.861 113.389 496.861 115.111C496.861 116.224 496.463 116.621 495.346 116.621H489.169C489.137 116.62 489.105 116.625 489.076 116.637C489.046 116.648 489.019 116.665 488.996 116.687C488.973 116.709 488.955 116.736 488.942 116.765C488.93 116.794 488.924 116.826 488.924 116.857C488.924 117.035 488.924 117.212 488.924 117.389V130.713C488.923 131.143 488.957 131.572 489.025 131.996C489.074 132.614 489.355 133.191 489.811 133.611C490.267 134.032 490.866 134.266 491.488 134.266C492.606 134.353 493.731 134.23 494.804 133.903C494.997 133.858 495.192 133.825 495.388 133.802C495.686 133.731 495.999 133.779 496.261 133.937C496.522 134.095 496.71 134.35 496.785 134.646C496.84 134.867 496.865 135.094 496.861 135.321C496.861 136.798 496.861 138.266 496.861 139.734C496.861 139.861 496.861 139.987 496.861 140.114C496.845 140.356 496.765 140.59 496.628 140.79C496.491 140.991 496.303 141.151 496.082 141.253C495.244 141.683 494.362 142.02 493.451 142.257C490.856 142.941 488.133 142.975 485.522 142.359C484.596 142.171 483.716 141.801 482.935 141.271C482.153 140.74 481.485 140.06 480.97 139.27C480.425 138.413 480.033 137.468 479.81 136.477C479.533 135.29 479.394 134.075 479.396 132.857C479.362 130.334 479.37 127.827 479.37 125.313Z" fill="#A7CF39"/>
<path d="M386.504 114.916C386.711 114.727 386.864 114.485 386.944 114.216C387.475 113.12 388.137 112.091 388.915 111.153C390.362 109.416 392.397 108.269 394.635 107.929C395.059 107.843 395.489 107.797 395.921 107.794C396.1 107.79 396.278 107.821 396.445 107.885C396.612 107.949 396.765 108.045 396.895 108.168C397.025 108.291 397.129 108.439 397.201 108.602C397.274 108.765 397.313 108.941 397.318 109.119C397.322 109.195 397.322 109.271 397.318 109.347V116.275C397.322 116.351 397.322 116.427 397.318 116.503C397.322 116.851 397.19 117.187 396.95 117.439C396.71 117.691 396.38 117.84 396.031 117.853C395.175 117.927 394.327 118.068 393.493 118.275C392.084 118.604 390.785 119.291 389.721 120.268C388.656 121.245 387.863 122.48 387.418 123.853C386.995 125.078 386.731 126.351 386.631 127.642C386.529 128.806 386.521 129.971 386.521 131.144C386.521 134.182 386.521 137.228 386.521 140.274C386.521 140.477 386.521 140.679 386.521 140.882C386.511 141.217 386.378 141.536 386.147 141.779C385.916 142.022 385.603 142.171 385.268 142.198H378.406C378.207 142.209 378.009 142.178 377.823 142.108C377.637 142.038 377.468 141.93 377.326 141.791C377.184 141.652 377.073 141.485 377 141.301C376.926 141.117 376.892 140.92 376.9 140.722C376.9 140.544 376.9 140.359 376.9 140.182V110.419C376.9 110.191 376.9 109.963 376.9 109.735C376.917 109.375 377.074 109.035 377.338 108.788C377.601 108.541 377.951 108.406 378.313 108.41C378.871 108.41 379.43 108.41 380.005 108.41H385.201C385.558 108.428 385.896 108.58 386.145 108.838C386.393 109.095 386.534 109.437 386.537 109.794C386.537 110.807 386.537 111.82 386.537 112.832L386.504 114.916Z" fill="#A7CF39"/>
<path d="M376.333 24.3622H372.364C372.333 24.3633 372.302 24.358 372.272 24.3466C372.243 24.3351 372.216 24.3178 372.194 24.2956C372.172 24.2734 372.154 24.2469 372.143 24.2177C372.131 24.1885 372.126 24.1572 372.127 24.1259C372.127 23.9233 372.127 23.7208 372.127 23.5183C372.127 21.5943 372.127 19.6619 372.127 17.7379C372.11 13.5057 373.648 9.41385 376.451 6.2361C378.12 4.29576 380.187 2.73502 382.512 1.65923C384.838 0.583445 387.367 0.0176384 389.931 0H395.854H396.311C396.362 0 396.412 0.0204486 396.448 0.056847C396.485 0.0932454 396.505 0.142612 396.505 0.194087C396.514 0.295178 396.514 0.396784 396.505 0.497876C396.505 2.72566 396.565 4.96188 396.505 7.18966C396.365 11.0762 394.954 14.8103 392.489 17.8235C390.023 20.8367 386.638 22.9639 382.848 23.8812C381.489 24.2135 380.093 24.3751 378.694 24.3622C377.915 24.3537 377.12 24.3622 376.333 24.3622Z" fill="#A7CF39"/>
<path d="M352.632 5.5357C353.393 5.5357 354.282 5.5357 355.17 5.58634C357.849 5.79192 360.409 6.77022 362.54 8.40195C364.67 10.0337 366.279 12.2484 367.169 14.7759C367.686 16.2632 367.952 17.826 367.956 19.4003C367.956 20.7758 367.956 22.1428 367.956 23.5099C367.956 23.6871 367.956 23.8643 367.956 24.0415C367.956 24.2187 367.871 24.3622 367.643 24.379H362.684C359.556 24.3405 356.533 23.2444 354.111 21.27C351.688 19.2956 350.009 16.5598 349.349 13.5102C349.138 12.5168 349.034 11.5043 349.035 10.4891V6.13484C349.035 6.00826 349.035 5.88169 349.035 5.75511C349.04 5.69169 349.069 5.63244 349.116 5.58992C349.163 5.54739 349.226 5.52493 349.289 5.52727H349.822L352.632 5.5357Z" fill="#A7CF39"/>
<path d="M468.641 35.9145L469.284 35.231C470.128 34.2806 471.054 33.4053 472.051 32.6151C474.441 30.6869 477.338 29.4884 480.394 29.1637C483.388 28.8089 486.423 29.1231 489.279 30.0835C491.169 30.7162 492.91 31.7254 494.397 33.0498C495.883 34.3742 497.084 35.9862 497.927 37.7879C498.92 39.8787 499.555 42.1206 499.805 44.4206C499.957 45.7568 500.025 47.1012 500.008 48.4458V77.3057C500.008 77.5842 500.008 77.8627 500.008 78.1496C499.971 78.7758 499.702 79.366 499.254 79.8056C498.805 80.2453 498.208 80.5032 497.58 80.5293H487.714C487.33 80.5494 486.946 80.5008 486.58 80.3858C486.092 80.2261 485.665 79.923 485.354 79.5163C485.043 79.1095 484.862 78.6183 484.837 78.1074C484.837 77.8795 484.837 77.6517 484.837 77.4239C484.837 69.1203 484.837 60.8196 484.837 52.5216C484.856 51.1516 484.699 49.7848 484.371 48.4543C484.226 47.9151 484.034 47.3899 483.796 46.8847C483.378 45.9253 482.733 45.0812 481.917 44.4243C481.1 43.7675 480.137 43.3174 479.108 43.1126C477.613 42.7703 476.059 42.7703 474.564 43.1126C473.384 43.3522 472.287 43.8958 471.383 44.6893C470.479 45.4828 469.799 46.4987 469.411 47.6357C468.912 48.987 468.654 50.415 468.649 51.855C468.649 52.5385 468.649 53.2221 468.649 53.914V77.2635C468.649 77.542 468.649 77.8205 468.649 78.1074C468.626 78.7497 468.359 79.359 467.901 79.8119C467.444 80.2648 466.831 80.5273 466.187 80.5461H456.321C455.913 80.5708 455.504 80.5134 455.119 80.3774C454.674 80.2152 454.285 79.9297 453.997 79.5545C453.71 79.1793 453.535 78.73 453.495 78.2593C453.478 77.9783 453.478 77.6965 453.495 77.4154V15.1979C453.495 14.9194 453.495 14.6409 453.495 14.354C453.539 13.8054 453.765 13.2871 454.138 12.8808C454.51 12.4744 455.007 12.203 455.551 12.1093C455.803 12.0684 456.057 12.0486 456.312 12.0503H465.772C465.927 12.0418 466.083 12.0418 466.238 12.0503C466.886 12.0869 467.495 12.3698 467.941 12.8406C468.386 13.3115 468.634 13.9346 468.633 14.5818C468.633 14.835 468.633 15.0882 468.633 15.3413V35.9145H468.641Z" fill="white"/>
<path d="M379.294 60.6986H364.182C363.979 60.6986 363.776 60.6986 363.573 60.6986C363.2 60.6986 363.15 60.7577 363.243 61.0868C363.632 62.6982 364.397 64.1955 365.474 65.4577C366.552 66.7199 367.912 67.7115 369.445 68.3524C370.6 68.8221 371.822 69.1069 373.067 69.1963C375.607 69.4568 378.172 69.1037 380.547 68.1668C382.042 67.5225 383.438 66.6702 384.693 65.6352C384.957 65.3938 385.256 65.1945 385.581 65.0445C385.959 64.8898 386.368 64.8282 386.775 64.8649C387.182 64.9017 387.573 65.0356 387.917 65.2555C388.11 65.3762 388.291 65.5147 388.458 65.669C390.083 67.1035 391.699 68.5381 393.324 69.9558C393.786 70.3187 394.116 70.8226 394.263 71.3903C394.377 71.8381 394.371 72.308 394.245 72.7525C394.118 73.197 393.877 73.6004 393.544 73.9219C392.403 75.1162 391.148 76.1958 389.795 77.1454C386.855 79.1663 383.513 80.5332 379.997 81.1537C377.486 81.6092 374.928 81.7538 372.381 81.5841C367.345 81.3511 362.482 79.6817 358.369 76.7741C353.566 73.3764 350.155 68.3629 348.765 62.6564C347.968 59.5788 347.682 56.3918 347.919 53.2221C348.129 49.8242 348.967 46.4942 350.389 43.3996C352.65 38.375 356.555 34.2657 361.466 31.7459C363.848 30.5148 366.423 29.6986 369.081 29.3325C373.044 28.7292 377.091 29.0175 380.928 30.1763C386.319 31.7744 390.873 35.4074 393.62 40.3026C395.11 42.9084 396.183 45.7298 396.802 48.6652C397.454 51.7455 397.715 54.8952 397.58 58.0405C397.575 58.3954 397.498 58.7457 397.356 59.071C397.213 59.3963 397.007 59.69 396.75 59.935C396.492 60.1801 396.188 60.3716 395.856 60.4983C395.523 60.6251 395.169 60.6846 394.813 60.6733C391.555 60.6733 388.298 60.6733 385.04 60.6733L379.294 60.6986ZM382.679 50.7664C382.687 50.7161 382.687 50.6649 382.679 50.6146C382.393 48.8332 381.749 47.128 380.784 45.602C379.97 44.3024 378.829 43.2377 377.475 42.5135C375.638 41.5452 373.538 41.1931 371.484 41.5093C370.256 41.6537 369.071 42.0498 368.004 42.6728C366.936 43.2958 366.01 44.1322 365.282 45.1295C364.111 46.735 363.302 48.5747 362.913 50.5217C362.913 50.6145 362.87 50.7243 362.98 50.7918C364.173 50.8761 382.138 50.8508 382.713 50.7664H382.679Z" fill="white"/>
<path d="M424.31 81.4828C417.19 81.4343 410.252 79.2367 404.409 75.1792C404.005 74.9326 403.676 74.5805 403.458 74.1611C403.241 73.7416 403.142 73.2708 403.173 72.7995C403.207 72.2904 403.386 71.8016 403.689 71.3903L406.812 66.6056C407.032 66.2681 407.243 65.9137 407.48 65.5846C407.84 65.0505 408.39 64.673 409.018 64.5288C409.647 64.3846 410.307 64.4845 410.865 64.8082C411.11 64.9432 411.339 65.1036 411.576 65.247C414.132 66.8736 416.919 68.1081 419.843 68.9094C421.61 69.3976 423.441 69.6195 425.275 69.5676C426.138 69.5437 426.993 69.3959 427.814 69.1288C428.25 68.9857 428.661 68.775 429.032 68.5043C429.328 68.2738 429.57 67.9824 429.743 67.6501C429.916 67.3177 430.015 66.9522 430.033 66.5783C430.052 66.2044 429.989 65.8309 429.85 65.4833C429.711 65.1356 429.498 64.8219 429.227 64.5635C428.8 64.2024 428.331 63.8936 427.83 63.6437C426.828 63.1458 425.783 62.7391 424.708 62.4285C422.694 61.8125 420.672 61.2218 418.658 60.5974C416.833 60.0445 415.058 59.3388 413.352 58.4877C411.754 57.6981 410.278 56.6836 408.969 55.4752C406.845 53.5019 405.485 50.8461 405.128 47.9733C404.733 45.3254 404.971 42.6222 405.822 40.0832C407.018 36.5554 409.509 33.61 412.794 31.8387C414.661 30.796 416.688 30.0689 418.793 29.6869C421.65 29.1669 424.572 29.1014 427.45 29.4928C431.975 30.0584 436.348 31.4911 440.328 33.7121L440.861 34.0159C441.383 34.3443 441.767 34.8509 441.941 35.441C442.116 36.0312 442.069 36.6645 441.809 37.2225C441.737 37.3851 441.655 37.5429 441.564 37.6951L438.399 43.4249C438.317 43.5815 438.227 43.7336 438.128 43.8806C437.799 44.3707 437.309 44.7308 436.742 44.8987C436.175 45.0666 435.567 45.0319 435.023 44.8004C434.811 44.716 434.608 44.5978 434.405 44.4966C432.249 43.3558 429.98 42.4396 427.636 41.7625C426.432 41.4315 425.2 41.2167 423.955 41.1212C423.016 41.0543 422.072 41.1456 421.163 41.3912C420.617 41.5307 420.105 41.7774 419.656 42.1169C419.388 42.321 419.167 42.581 419.009 42.8789C418.851 43.1767 418.76 43.5053 418.742 43.8418C418.724 44.1783 418.78 44.5145 418.906 44.8273C419.032 45.14 419.224 45.4216 419.47 45.6527C419.938 46.0812 420.462 46.4445 421.027 46.7328C421.928 47.2049 422.864 47.6056 423.828 47.9311L430.03 50.066C431.983 50.7164 433.879 51.5235 435.7 52.4795C437.209 53.2779 438.606 54.2709 439.854 55.433C441.749 57.2062 443.034 59.5302 443.527 62.0741C443.68 62.847 443.763 63.6322 443.772 64.42C443.848 66.3746 443.611 68.3289 443.07 70.2089C442.062 73.7425 439.717 76.7472 436.529 78.5884C434.691 79.6609 432.691 80.4276 430.606 80.8584C428.536 81.2901 426.425 81.4995 424.31 81.4828V81.4828Z" fill="white"/>
<path d="M295.244 60.8168C295.244 66.3694 295.244 71.9248 295.244 77.483C295.252 77.7874 295.238 78.0919 295.202 78.3943C295.113 78.9642 294.831 79.4865 294.403 79.8748C293.975 80.263 293.427 80.4939 292.85 80.5293H282.933C282.626 80.5454 282.319 80.5199 282.019 80.4533C281.485 80.3183 281.008 80.0175 280.656 79.5943C280.305 79.1711 280.098 78.6474 280.064 78.099C280.064 77.8458 280.064 77.5842 280.064 77.3311V44.0747C280.064 42.9017 280.225 43.0874 279.057 43.0705C278.296 43.0705 277.534 43.0705 276.773 43.0705C276.209 43.0639 275.663 42.8705 275.222 42.5206C274.781 42.1707 274.469 41.6843 274.336 41.138C274.283 40.9426 274.254 40.7413 274.251 40.5389C274.251 38.0073 274.251 35.4758 274.251 32.9948C274.236 32.4119 274.423 31.8417 274.781 31.3804C275.138 30.9192 275.645 30.5952 276.214 30.4632C276.493 30.4077 276.776 30.3823 277.06 30.3873C277.907 30.3873 278.753 30.3873 279.65 30.3873C280.056 30.3873 280.073 30.3873 280.073 29.9401C280.073 29.2565 280.073 28.573 280.073 27.8895C280.065 26.2139 280.215 24.5414 280.521 22.8939C280.827 21.2195 281.398 19.6044 282.214 18.1092C283.617 15.5708 285.887 13.6186 288.611 12.6072C290.181 12.0129 291.827 11.6408 293.501 11.5018C296.064 11.2906 298.643 11.35 301.193 11.679C302.305 11.8202 303.407 12.0288 304.493 12.3034C304.934 12.3898 305.345 12.5916 305.682 12.8882C306.02 13.1847 306.272 13.5654 306.414 13.9912C306.544 14.4057 306.598 14.8401 306.575 15.2738V21.8137C306.569 22.1185 306.546 22.4228 306.507 22.7251C306.445 23.1554 306.257 23.5578 305.965 23.8812C305.662 24.2608 305.253 24.5432 304.789 24.6932C304.326 24.8432 303.829 24.8543 303.359 24.725C302.64 24.5605 301.911 24.4421 301.176 24.3706C300.269 24.2478 299.35 24.2478 298.443 24.3706C297.61 24.4611 296.834 24.834 296.244 25.4269C295.654 26.0199 295.286 26.7969 295.202 27.6279C295.084 28.4662 295.047 29.314 295.092 30.1595C295.092 30.3873 295.185 30.4717 295.422 30.4801C295.659 30.4886 295.828 30.4801 296.031 30.4801H304.045C304.69 30.5079 305.3 30.78 305.752 31.2409C306.203 31.7019 306.461 32.317 306.473 32.9611V40.1929C306.487 40.5468 306.441 40.9006 306.338 41.2393C306.185 41.7278 305.887 42.1586 305.484 42.475C305.081 42.7913 304.591 42.9783 304.078 43.0114C303.85 43.0114 303.622 43.0114 303.393 43.0114H295.532C295.501 43.0077 295.468 43.0109 295.438 43.0208C295.408 43.0307 295.38 43.0471 295.357 43.0687C295.333 43.0904 295.315 43.1169 295.303 43.1463C295.291 43.1758 295.285 43.2075 295.287 43.2392C295.287 43.4671 295.287 43.6949 295.287 43.9228L295.244 60.8168Z" fill="white"/>
<path d="M312.989 55.2136V33.1299C312.989 32.8514 312.989 32.5729 312.989 32.286C313.037 31.6603 313.316 31.0746 313.773 30.6427C314.229 30.2108 314.83 29.9634 315.46 29.9485C315.942 29.9485 316.424 29.9485 316.907 29.9485H325.309C325.612 29.9297 325.916 29.9496 326.214 30.0076C326.677 30.1156 327.099 30.3507 327.435 30.6864C327.77 31.022 328.004 31.4447 328.11 31.9063C328.168 32.2037 328.196 32.5062 328.194 32.8092C328.194 34.1256 328.194 35.4505 328.194 36.7669C328.194 36.9694 328.194 37.1719 328.194 37.3745C328.198 37.3973 328.207 37.4191 328.22 37.4381C328.233 37.4571 328.25 37.4729 328.271 37.4842C328.29 37.4938 328.312 37.4989 328.334 37.4989C328.356 37.4989 328.378 37.4938 328.397 37.4842L328.753 36.9019C329.764 35.1665 331.067 33.6167 332.603 32.3198C334.576 30.6912 336.958 29.6319 339.491 29.2566C340.14 29.1303 340.801 29.0709 341.462 29.0793C342.016 29.0814 342.554 29.264 342.994 29.5991C343.434 29.9343 343.752 30.4037 343.899 30.9358C343.964 31.1809 343.995 31.4335 343.992 31.6869C343.992 35.2395 343.992 38.7921 343.992 42.3448C343.987 42.9968 343.739 43.6236 343.296 44.1038C342.854 44.5839 342.249 44.8833 341.598 44.9438C340.201 45.0222 338.818 45.263 337.477 45.6611C335.702 46.1507 334.069 47.052 332.71 48.2912C331.351 49.5304 330.305 51.0726 329.658 52.7917C329.034 54.4203 328.622 56.1219 328.431 57.8549C328.27 59.2554 328.197 60.6645 328.211 62.0741V77.4492C328.229 77.7302 328.229 78.0121 328.211 78.2931C328.145 78.9066 327.857 79.475 327.401 79.8914C326.944 80.3079 326.351 80.5437 325.732 80.5546C325.199 80.5546 324.666 80.5546 324.133 80.5546H315.392C314.79 80.5196 314.22 80.272 313.784 79.856C313.348 79.4401 313.075 78.883 313.014 78.2846C312.997 77.9811 312.997 77.6768 313.014 77.3733L312.989 55.2136Z" fill="white"/>
<path d="M134.972 75.0864V92.1914C134.972 92.3939 134.972 92.6049 134.972 92.8074C134.972 93.4687 134.713 94.1038 134.25 94.5769C133.786 95.05 133.156 95.3235 132.493 95.339H122.644C122.286 95.353 121.928 95.3073 121.586 95.2039C121.099 95.0467 120.672 94.7467 120.359 94.3432C120.047 93.9397 119.864 93.4514 119.834 92.9424C119.834 92.7146 119.834 92.4867 119.834 92.2589V33.0539C119.834 32.826 119.834 32.5982 119.834 32.3704C119.873 31.7608 120.132 31.1859 120.563 30.7517C120.994 30.3174 121.567 30.0531 122.178 30.0076C122.356 30.0076 122.542 30.0076 122.72 30.0076H132.104C132.434 29.9877 132.765 30.019 133.085 30.1004C133.621 30.2339 134.097 30.5423 134.438 30.9765C134.778 31.4107 134.963 31.9458 134.964 32.4969C134.964 33.4336 134.964 34.3703 134.964 35.3154V35.8386C135.234 35.8386 135.311 35.6783 135.412 35.5601C136.363 34.4994 137.414 33.5329 138.551 32.6742C140.836 30.9542 143.509 29.8211 146.336 29.3747C150.033 28.7804 153.819 29.1237 157.348 30.3728C160.876 31.6219 164.032 33.7366 166.526 36.5221C169.21 39.565 171.109 43.2146 172.06 47.1547C172.71 49.8284 173.025 52.5722 172.999 55.3233C173.014 58.0909 172.696 60.8504 172.051 63.5424C171.262 66.8871 169.777 70.0293 167.693 72.7658C164.603 76.8151 160.196 79.6669 155.229 80.8331C153.015 81.3666 150.733 81.5629 148.46 81.4153C143.7 81.2145 139.193 79.2248 135.844 75.8459C135.589 75.5541 135.296 75.2985 134.972 75.0864V75.0864ZM134.803 55.2726C134.759 57.5297 135.225 59.7677 136.165 61.821C137.056 63.8538 138.527 65.5796 140.396 66.7829C142.549 68.1217 145.098 68.6845 147.617 68.3774C150.135 68.0703 152.473 66.9119 154.239 65.0951C155.665 63.597 156.692 61.7663 157.226 59.7704C157.804 57.7134 157.977 55.564 157.734 53.4415C157.55 51.5388 156.973 49.6945 156.042 48.0239C155.192 46.3782 153.939 44.9735 152.399 43.9407C150.859 42.9079 149.082 42.2805 147.233 42.1169C145.12 41.888 142.987 42.3028 141.115 43.3067C138.894 44.4901 137.136 46.3831 136.123 48.6821C135.193 50.7526 134.742 53.0049 134.803 55.2726V55.2726Z" fill="#A7CF39"/>
<path d="M27.1789 81.4828C18.2042 81.493 9.46215 78.6363 2.23393 73.3312C1.84469 73.0442 1.47238 72.732 1.08314 72.4873C0.787165 72.2762 0.539122 72.0053 0.355186 71.6922C0.171249 71.3791 0.0555494 71.0309 0.0156298 70.6702C-0.0242897 70.3095 0.0124669 69.9445 0.123504 69.5989C0.234542 69.2534 0.417367 68.935 0.660057 68.6646C1.58238 67.5761 2.48778 66.479 3.40164 65.3905C4.3155 64.3019 5.3309 63.0952 6.28707 61.9391C6.38861 61.8294 6.48168 61.7113 6.59169 61.6016C6.97307 61.179 7.48597 60.8968 8.04777 60.8004C8.60956 60.7039 9.18756 60.7989 9.68866 61.0699C9.93169 61.2127 10.1636 61.3735 10.3825 61.5509C12.4493 63.1178 14.6825 64.4535 17.0418 65.5339C20.8762 67.29 25.0954 68.045 29.3028 67.7279C30.6014 67.6442 31.8756 67.3358 33.0682 66.8166C33.7921 66.5037 34.4519 66.0603 35.0144 65.5086C35.7557 64.7592 36.2081 63.7731 36.2921 62.7239C36.3344 62.2945 36.3344 61.8621 36.2921 61.4328C36.2148 60.4355 35.7576 59.5055 35.0144 58.8337C34.3494 58.2419 33.5993 57.7527 32.789 57.3823C31.4993 56.7753 30.1674 56.262 28.8036 55.8464C26.4597 55.087 24.0566 54.5132 21.6788 53.8718C18.831 53.1534 16.0397 52.2283 13.3272 51.104C11.6343 50.4058 10.0227 49.5258 8.52095 48.4796C5.37593 46.3301 3.17252 43.0642 2.36085 39.349C1.54853 35.9538 1.54853 32.4155 2.36085 29.0202C3.35718 24.8809 5.78386 21.224 9.2148 18.6914C11.7726 16.791 14.7012 15.4457 17.8119 14.7422C20.3877 14.1245 23.0326 13.8408 25.6812 13.8983C31.1154 13.9058 36.4869 15.056 41.4453 17.2737C43.6454 18.2748 45.7426 19.4872 47.7069 20.8939C48.1052 21.1508 48.4234 21.5139 48.6253 21.942C48.8272 22.37 48.9048 22.846 48.8493 23.3158C48.8012 23.7697 48.6349 24.2031 48.3669 24.5731C47.8 25.417 47.2415 26.2102 46.6746 27.0203C45.5746 28.6067 44.4774 30.196 43.383 31.7881C43.1829 32.116 42.9215 32.4025 42.613 32.6319C42.2179 32.9155 41.7494 33.0797 41.2633 33.1052C40.7773 33.1306 40.2941 33.0161 39.8714 32.7754C39.4822 32.5729 39.1353 32.3282 38.7629 32.1003C36.602 30.7569 34.3045 29.6452 31.909 28.784C29.7334 28.0072 27.4493 27.5744 25.1397 27.5013C23.8408 27.4626 22.5433 27.6162 21.2896 27.957C20.3655 28.2057 19.5019 28.6392 18.7511 29.2312C18.23 29.6254 17.8091 30.1363 17.5225 30.7227C17.2359 31.309 17.0915 31.9544 17.1011 32.6066C17.0887 33.116 17.1312 33.6253 17.228 34.1256C17.4054 34.9217 17.825 35.6438 18.4296 36.193C18.9618 36.6683 19.5569 37.0686 20.198 37.3829C21.618 38.0666 23.0926 38.6311 24.6066 39.0706C26.9843 39.8132 29.4043 40.4039 31.8159 41.0536C34.5469 41.7618 37.22 42.6758 39.8122 43.7877C41.8728 44.6566 43.8101 45.7915 45.5746 47.1632C48.7423 49.6292 50.8166 53.2334 51.3539 57.2051C51.9047 60.6269 51.6586 64.1292 50.6347 67.441C49.9094 69.7925 48.7096 71.9713 47.1089 73.8433C45.5082 75.7153 43.5406 77.2411 41.3268 78.3268C39.0634 79.495 36.6356 80.3144 34.126 80.7571C31.8396 81.2246 29.5128 81.4677 27.1789 81.4828V81.4828Z" fill="#A7CF39"/>
<path d="M211.296 60.6902H195.955C194.948 60.6902 195.109 60.6902 195.346 61.5341C195.736 62.7998 196.34 63.9899 197.131 65.0529C198.625 67.0473 200.803 68.4232 203.249 68.9178C204.996 69.2873 206.791 69.3672 208.563 69.1541C211.388 68.8533 214.063 67.7391 216.263 65.9474L216.864 65.4749C217.338 65.0689 217.945 64.8513 218.569 64.8638C219.194 64.8763 219.792 65.1179 220.249 65.5424C220.714 65.9306 221.163 66.3862 221.62 66.7491L225.106 69.8292L225.495 70.192C225.964 70.6348 226.246 71.2391 226.283 71.8818C226.321 72.5246 226.112 73.1575 225.698 73.6518C225.603 73.7703 225.502 73.8831 225.393 73.9894C221.974 77.5521 217.546 79.9896 212.701 80.9765C209.921 81.5606 207.073 81.7565 204.239 81.5588C199.977 81.3449 195.829 80.1089 192.148 77.9555C189.311 76.3127 186.836 74.1163 184.871 71.4978C182.905 68.8792 181.489 65.8922 180.707 62.7155C179.954 59.8114 179.668 56.8063 179.861 53.8128C180.005 50.0753 180.918 46.4073 182.544 43.0367C184.134 39.5949 186.519 36.5773 189.503 34.2307C192.487 31.8841 195.985 30.275 199.712 29.535C202.359 28.996 205.073 28.8679 207.759 29.1553C210.383 29.3797 212.954 30.0207 215.375 31.0539C219.446 32.8152 222.873 35.7855 225.19 39.56C226.952 42.4142 228.192 45.5569 228.854 48.8425C229.459 51.6728 229.714 54.5661 229.616 57.4582C229.615 57.8146 229.583 58.1703 229.523 58.5215C229.429 59.1021 229.135 59.6319 228.692 60.0199C228.249 60.408 227.684 60.6301 227.094 60.648C226.891 60.648 226.68 60.648 226.477 60.648L211.296 60.6902ZM194.999 50.7918C195.278 50.8464 195.563 50.8606 195.845 50.834H214.461C214.673 50.834 214.74 50.758 214.723 50.5639C214.736 50.463 214.736 50.361 214.723 50.2601C214.371 48.4407 213.639 46.7155 212.574 45.197C211.552 43.7274 210.106 42.603 208.428 41.9735C206.821 41.3868 205.091 41.2183 203.402 41.484C201.159 41.7769 199.109 42.9042 197.665 44.64C196.333 46.2857 195.414 48.2237 194.982 50.2939C194.949 50.3731 194.933 50.4587 194.935 50.5447C194.938 50.6307 194.96 50.715 194.999 50.7918V50.7918Z" fill="#A7CF39"/>
<path d="M93.0108 74.732L91.8938 75.9218C91.1126 76.7503 90.2635 77.5124 89.3553 78.2002C86.8115 80.1004 83.7622 81.21 80.589 81.39C78.0845 81.5995 75.5628 81.3448 73.1512 80.639C71.0365 80.0262 69.0854 78.9508 67.4401 77.491C65.7948 76.0312 64.4967 74.2238 63.6403 72.2004C62.8543 70.4369 62.3271 68.5697 62.0749 66.6563C61.8662 65.1464 61.7672 63.6235 61.7787 62.0994C61.7787 52.4626 61.7787 42.8201 61.7787 33.172C61.7787 32.8936 61.7787 32.6067 61.7787 32.3282C61.8299 31.7125 62.105 31.1367 62.5523 30.7092C62.9996 30.2818 63.5882 30.0322 64.2072 30.0076H74.1328C74.386 29.9821 74.6411 29.9821 74.8943 30.0076C75.4598 30.1164 75.9713 30.4137 76.345 30.8508C76.7186 31.2878 76.9321 31.8385 76.9505 32.4126C76.9505 32.6657 76.9505 32.9273 76.9505 33.1805C76.9505 41.4278 76.9505 49.6751 76.9505 57.9224C76.9169 59.4224 77.1109 60.9189 77.5259 62.361C77.6531 62.7723 77.8057 63.1753 77.9828 63.5678C78.3996 64.5416 79.0495 65.3985 79.8757 66.0635C80.7018 66.7285 81.6789 67.1812 82.7214 67.382C84.2702 67.7255 85.8779 67.7052 87.4176 67.3229C88.5149 67.0729 89.5337 66.5571 90.3837 65.8212C91.2338 65.0853 91.889 64.152 92.2915 63.1036C92.7711 61.978 93.0571 60.7798 93.1377 59.5594C93.1377 59.0278 93.1377 58.4962 93.1377 57.9645V33.1467C93.1276 32.7679 93.156 32.3891 93.2223 32.016C93.338 31.4666 93.6336 30.9712 94.0625 30.6076C94.4914 30.2441 95.0292 30.033 95.5916 30.0076H105.593C105.849 30.0003 106.104 30.023 106.355 30.0751C106.894 30.1934 107.38 30.4841 107.739 30.9029C108.098 31.3217 108.31 31.8458 108.343 32.3957C108.356 32.6234 108.356 32.8515 108.343 33.0792V77.4745C108.356 77.8278 108.331 78.1815 108.267 78.5293C108.156 79.0834 107.863 79.5845 107.434 79.953C107.004 80.3216 106.464 80.5363 105.898 80.563H96.0654C95.7088 80.5786 95.352 80.5387 95.0077 80.4449C94.5644 80.3184 94.165 80.0715 93.8542 79.7317C93.5434 79.392 93.3334 78.9728 93.2477 78.5209C93.1898 78.2234 93.1614 77.921 93.1631 77.618C93.1631 76.8248 93.1631 76.04 93.1631 75.2552C93.1903 75.1626 93.1905 75.0641 93.1635 74.9714C93.1365 74.8787 93.0835 74.7956 93.0108 74.732V74.732Z" fill="#A7CF39"/>
<path d="M254.273 37.6867C254.447 37.5011 254.587 37.287 254.688 37.0538C255.568 35.5358 256.659 34.1494 257.928 32.9358C260.142 30.8343 262.982 29.51 266.018 29.1637C266.496 29.0836 266.98 29.0412 267.465 29.0371C268.016 29.052 268.547 29.2417 268.982 29.5786C269.418 29.9155 269.734 30.3821 269.885 30.9105C269.964 31.2305 269.992 31.5607 269.969 31.8894V39.4588C269.969 40.3026 269.919 41.1465 269.969 42.041C270 42.4084 269.953 42.7781 269.833 43.1265C269.712 43.4749 269.519 43.7943 269.268 44.0644C269.016 44.3344 268.711 44.5491 268.371 44.6947C268.032 44.8404 267.665 44.9137 267.296 44.9101C265.871 44.9715 264.463 45.2387 263.115 45.7033C261.351 46.2555 259.741 47.2149 258.418 48.5037C257.095 49.7925 256.095 51.3744 255.5 53.1208C254.937 54.6736 254.565 56.2887 254.392 57.9308C254.24 59.332 254.173 60.7409 254.188 62.1501V77.3395C254.194 77.6696 254.174 77.9997 254.129 78.3268C254.04 78.8954 253.759 79.4166 253.333 79.8047C252.907 80.1928 252.361 80.4246 251.785 80.4618H241.538C240.879 80.4621 240.246 80.207 239.773 79.7504C239.299 79.2937 239.022 78.6713 239 78.0146C239 77.8121 239 77.6011 239 77.3986V33.0117C238.99 32.6815 239.01 32.3511 239.059 32.0244C239.183 31.4707 239.486 30.9732 239.922 30.6086C240.358 30.2441 240.902 30.0329 241.471 30.0076H241.699C244.957 30.0076 248.214 30.0076 251.472 30.0076C252.019 29.9885 252.558 30.1411 253.014 30.4439C253.469 30.7467 253.818 31.1844 254.011 31.6953C254.129 32.0832 254.181 32.4884 254.163 32.8936V37.1129C254.136 37.311 254.175 37.5124 254.273 37.6867V37.6867Z" fill="#A7CF39"/>
</svg>
