<?xml version="1.0" encoding="utf-8"?>
<!-- Generator: Adobe Illustrator 25.4.0, SVG Export Plug-In . SVG Version: 6.00 Build 0)  -->
<svg version="1.1" id="Layer_1" xmlns:v="https://vecta.io/nano"
	 xmlns="http://www.w3.org/2000/svg" xmlns:xlink="http://www.w3.org/1999/xlink" x="0px" y="0px" viewBox="0 0 72 88"
	 style="enable-background:new 0 0 72 88;" xml:space="preserve">
<style type="text/css">
	.st0{fill:url(#SVGID_1_);}
	.st1{fill:url(#SVGID_00000127757115478579013540000009610029730073318077_);}
	.st2{opacity:7.000000e-02;enable-background:new    ;}
	.st3{fill:url(#SVGID_00000098919425913440949360000012638776426580051875_);}
	.st4{opacity:5.000000e-02;enable-background:new    ;}
	.st5{fill:url(#SVGID_00000135657492021596195320000012290505583736905913_);}
	.st6{fill:url(#SVGID_00000061473778822238560950000005103568068291665317_);}
	.st7{fill:url(#SVGID_00000104697396513473213210000013100224722256755091_);}
	.st8{fill:url(#SVGID_00000053534878609332032040000000208765124500779694_);}
	.st9{fill:url(#SVGID_00000084513555931574289110000002452369994775180442_);}
	.st10{fill:url(#SVGID_00000157283010298304449340000009778732541368788103_);}
	.st11{fill:url(#SVGID_00000131328491885585850540000017984346177112824483_);}
</style>
<linearGradient id="SVGID_1_" gradientUnits="userSpaceOnUse" x1="43.085" y1="32.1941" x2="40.085" y2="25.6941" gradientTransform="matrix(1 0 0 -1 0 90)">
	<stop  offset="0" style="stop-color:#FFF3D9"/>
	<stop  offset="0.624" style="stop-color:#FFCC60"/>
	<stop  offset="1" style="stop-color:#FDBC31"/>
</linearGradient>
<path class="st0" d="M40,59.3l-4.2,4.2c2.4,2.7,6.5,2.8,9.1,0.3c0.8-0.9,0.3-2.3-0.9-2.5C42.5,61.1,41,60.4,40,59.3z"/>
<linearGradient id="SVGID_00000129200145948328212010000003651606108630112395_" gradientUnits="userSpaceOnUse" x1="31.138" y1="19.1633" x2="49.108" y2="19.1633" gradientTransform="matrix(1 0 0 -1 0 90)">
	<stop  offset="0" style="stop-color:#FFFFFF"/>
	<stop  offset="0.416" style="stop-color:#F5F4F8"/>
	<stop  offset="1" style="stop-color:#EFECF3"/>
</linearGradient>
<path style="fill:url(#SVGID_00000129200145948328212010000003651606108630112395_);" d="M37.4,61.8L48,72.4c1.7,1.7,1.7,4.5,0,6.2
	c-1.7,1.7-4.5,1.7-6.2,0L31.2,68.1L37.4,61.8z"/>
<path class="st2" d="M31.2,68.1l0.6,0.6c1.6,1.6,4.2,1.6,5.9,0l0.9-0.9l7,7c1.3,1.3,1.6,3.2,1,4.8c0.5-0.2,1-0.5,1.4-1
	c1.7-1.7,1.7-4.5,0-6.2L37.4,61.8L31.2,68.1z"/>
<linearGradient id="SVGID_00000145773758254610447480000011093335391412086931_" gradientUnits="userSpaceOnUse" x1="32.78" y1="59.6" x2="60.012" y2="59.6" gradientTransform="matrix(1 0 0 -1 0 90)">
	<stop  offset="0" style="stop-color:#FFF3D9"/>
	<stop  offset="0.624" style="stop-color:#FFCC60"/>
	<stop  offset="1" style="stop-color:#FDBC31"/>
</linearGradient>
<path style="fill:url(#SVGID_00000145773758254610447480000011093335391412086931_);" d="M45.4,45.1c8.1,0,14.7-6.6,14.7-14.7
	s-6.6-14.7-14.7-14.7s-14.7,6.6-14.7,14.7S37.3,45.1,45.4,45.1z"/>
<path class="st4" d="M34.5,20.6l20.8,20.8l0.6-0.6c2.1-2.1,3.4-4.7,4-7.4L42.4,16c-2.7,0.6-5.3,1.9-7.4,4
	C34.8,20.2,34.7,20.4,34.5,20.6z"/>
<linearGradient id="SVGID_00000103985082150458947400000004716830899229708976_" gradientUnits="userSpaceOnUse" x1="4.014" y1="48.4004" x2="63.425" y2="48.4004" gradientTransform="matrix(1 0 0 -1 0 90)">
	<stop  offset="0" style="stop-color:#FFFFFF"/>
	<stop  offset="0.416" style="stop-color:#F5F4F8"/>
	<stop  offset="1" style="stop-color:#EFECF3"/>
</linearGradient>
<path style="fill:url(#SVGID_00000103985082150458947400000004716830899229708976_);" d="M20.2,29.6L20.2,29.6L9.6,40.2
	c-7.2,7.2-7.2,18.8,0,26c0,0,0,0,0,0c7.2,7.2,18.8,7.2,26,0c0,0,0,0,0,0l10.6-10.6c4.1-4,9.8-5.8,15.4-5l2.6-2.6L27.8,11.6l-2.6,2.6
	C26,19.8,24.2,25.5,20.2,29.6z"/>
<path class="st2" d="M27.8,11.6L64.2,48l-2.6,2.6c-3.2-0.5-6.5-0.1-9.5,1.1L24,23.7c1.2-3,1.6-6.3,1.1-9.5
	C25.1,14.2,27.8,11.6,27.8,11.6z"/>
<linearGradient id="SVGID_00000065063053452589975450000002343555801712278151_" gradientUnits="userSpaceOnUse" x1="4.139" y1="24.0133" x2="13.564" y2="24.0133" gradientTransform="matrix(1 0 0 -1 0 90)">
	<stop  offset="0" style="stop-color:#A7CF39"/>
	<stop  offset="1" style="stop-color:#006726"/>
</linearGradient>
<path style="fill:url(#SVGID_00000065063053452589975450000002343555801712278151_);" d="M15,67l-2.9,2.9c-1.7,1.7-4.5,1.7-6.2,0
	c-1.7-1.7-1.7-4.5,0-6.2l2.9-2.9L15,67z"/>
<linearGradient id="SVGID_00000060024522689979523020000005655857025366178945_" gradientUnits="userSpaceOnUse" x1="2.796" y1="34.3004" x2="31.646" y2="34.3004" gradientTransform="matrix(1 0 0 -1 0 90)">
	<stop  offset="0" style="stop-color:#A7CF39"/>
	<stop  offset="1" style="stop-color:#006726"/>
</linearGradient>
<path style="fill:url(#SVGID_00000060024522689979523020000005655857025366178945_);" d="M36.2,65.7l-26-26l-0.6,0.6
	c-7.2,7.2-7.2,18.8,0,26c0,0,0,0,0,0c7.2,7.2,18.8,7.2,26,0c0,0,0,0,0,0C35.6,66.3,36.2,65.7,36.2,65.7z"/>
<linearGradient id="SVGID_00000026127361939053856520000002143713891371201973_" gradientUnits="userSpaceOnUse" x1="21.668" y1="59.8617" x2="61.578" y2="59.8617" gradientTransform="matrix(1 0 0 -1 0 90)">
	<stop  offset="0" style="stop-color:#A7CF39"/>
	<stop  offset="1" style="stop-color:#006726"/>
</linearGradient>
<path style="fill:url(#SVGID_00000026127361939053856520000002143713891371201973_);" d="M60.3,50.9L24.9,15.5
	c-1.7-1.7-1.7-4.5,0-6.2c1.7-1.7,4.5-1.7,6.2,0l35.4,35.4c1.7,1.7,1.7,4.5,0,6.2C64.8,52.7,62,52.7,60.3,50.9z"/>
<linearGradient id="SVGID_00000105416391792827916830000004346708130305837188_" gradientUnits="userSpaceOnUse" x1="54.351" y1="78.25" x2="56.962" y2="78.25" gradientTransform="matrix(1 0 0 -1 0 90)">
	<stop  offset="0" style="stop-color:#FFF3D9"/>
	<stop  offset="0.624" style="stop-color:#FFCC60"/>
	<stop  offset="1" style="stop-color:#FDBC31"/>
</linearGradient>
<path style="fill:url(#SVGID_00000105416391792827916830000004346708130305837188_);" d="M55.6,15c-0.8,0-1.4-0.6-1.4-1.4V9.9
	c0-0.8,0.6-1.4,1.4-1.4S57,9.1,57,9.9v3.7C57,14.4,56.3,15,55.6,15z"/>
<linearGradient id="SVGID_00000168092823223480202860000013679712397892026500_" gradientUnits="userSpaceOnUse" x1="61.265" y1="69.7" x2="67.272" y2="69.7" gradientTransform="matrix(1 0 0 -1 0 90)">
	<stop  offset="0" style="stop-color:#FFF3D9"/>
	<stop  offset="0.624" style="stop-color:#FFCC60"/>
	<stop  offset="1" style="stop-color:#FDBC31"/>
</linearGradient>
<path style="fill:url(#SVGID_00000168092823223480202860000013679712397892026500_);" d="M65.9,21.7h-3.7c-0.8,0-1.4-0.6-1.4-1.4
	s0.6-1.4,1.4-1.4h3.7c0.8,0,1.4,0.6,1.4,1.4C67.3,21,66.7,21.7,65.9,21.7z"/>
<linearGradient id="SVGID_00000074440322525903689140000015711824078336338305_" gradientUnits="userSpaceOnUse" x1="59.24" y1="75.8" x2="64.253" y2="75.8" gradientTransform="matrix(1 0 0 -1 0 90)">
	<stop  offset="0" style="stop-color:#FFF3D9"/>
	<stop  offset="0.624" style="stop-color:#FFCC60"/>
	<stop  offset="1" style="stop-color:#FDBC31"/>
</linearGradient>
<path style="fill:url(#SVGID_00000074440322525903689140000015711824078336338305_);" d="M59.3,16.5c-0.6-0.6-0.6-1.4,0-2l2.6-2.6
	c0.6-0.6,1.4-0.6,2,0c0.6,0.6,0.6,1.4,0,2l-2.6,2.6C60.7,17.1,59.8,17.1,59.3,16.5z"/>
</svg>
