<?xml version="1.0" encoding="utf-8"?>
<!-- Generator: Adobe Illustrator 25.4.0, SVG Export Plug-In . SVG Version: 6.00 Build 0)  -->
<svg version="1.1" id="Layer_1" xmlns:v="https://vecta.io/nano"
	 xmlns="http://www.w3.org/2000/svg" xmlns:xlink="http://www.w3.org/1999/xlink" x="0px" y="0px" viewBox="0 0 86 86"
	 style="enable-background:new 0 0 86 86;" xml:space="preserve">
<style type="text/css">
	.st0{fill:url(#SVGID_1_);filter:url(#Adobe_OpacityMaskFilter);}
	.st1{mask:url(#A_00000143617648172003507080000006544522261193225608_);}
	.st2{fill:url(#SVGID_00000085225030677960940270000006726479007287551909_);}
	.st3{opacity:7.000000e-02;enable-background:new    ;}
	.st4{fill:url(#SVGID_00000018933726172373346330000017461046828128064132_);}
	.st5{opacity:7.000000e-02;fill:#1F1B2D;enable-background:new    ;}
	.st6{fill:url(#SVGID_00000176727564829716370330000009141493058100953755_);}
	.st7{opacity:0.5;fill:#A7CF39;enable-background:new    ;}
	.st8{fill:#006726;}
	.st9{fill:url(#SVGID_00000047056735929409198300000017365874618527013817_);}
	.st10{opacity:0.12;}
	.st11{fill:#A7CF39;}
	.st12{fill:url(#SVGID_00000065786440248236822180000006035003502601524900_);}
	.st13{fill:url(#SVGID_00000065774620696757772260000014062335472260531589_);}
</style>
<defs>
	<filter id="Adobe_OpacityMaskFilter" filterUnits="userSpaceOnUse" x="0" y="21" width="86" height="63.5">
		<feColorMatrix  type="matrix" values="1 0 0 0 0  0 1 0 0 0  0 0 1 0 0  0 0 0 1 0"/>
	</filter>
</defs>
<mask maskUnits="userSpaceOnUse" x="0" y="21" width="86" height="63.5" id="A_00000143617648172003507080000006544522261193225608_">
	
		<linearGradient id="SVGID_1_" gradientUnits="userSpaceOnUse" x1="43" y1="61.844" x2="43" y2="3.256" gradientTransform="matrix(1 0 0 -1 0 88)">
		<stop  offset="0" style="stop-color:#FFFFFF"/>
		<stop  offset="0.416" style="stop-color:#F5F4F8"/>
		<stop  offset="1" style="stop-color:#EFECF3"/>
	</linearGradient>
	<path class="st0" d="M0,31c0-5.5,4.5-10,10-10h66c5.5,0,10,4.5,10,10v43.3c0,5.5-4.5,10-10,10H10c-5.5,0-10-4.5-10-10V31z"/>
</mask>
<g class="st1">
	
		<linearGradient id="SVGID_00000098191660324887743970000002401053780687292290_" gradientUnits="userSpaceOnUse" x1="43" y1="61.844" x2="43" y2="3.256" gradientTransform="matrix(1 0 0 -1 0 88)">
		<stop  offset="0" style="stop-color:#FFFFFF"/>
		<stop  offset="0.416" style="stop-color:#F5F4F8"/>
		<stop  offset="1" style="stop-color:#EFECF3"/>
	</linearGradient>
	<path style="fill:url(#SVGID_00000098191660324887743970000002401053780687292290_);" d="M0,29c0-4.4,3.6-8,8-8h70c4.4,0,8,3.6,8,8
		v47.3c0,4.4-3.6,8-8,8H8c-4.4,0-8-3.6-8-8V29z"/>
	<path class="st3" d="M5.2,78.9V26.8c0-3.1,2.5-5.6,5.6-5.6H5.6c-3.1,0-5.6,2.5-5.6,5.6v52.1c0,3.1,2.5,5.6,5.6,5.6h5.2
		C7.7,84.5,5.2,82,5.2,78.9L5.2,78.9z"/>
	
		<linearGradient id="SVGID_00000157295573436758480230000014093640778445852351_" gradientUnits="userSpaceOnUse" x1="43" y1="59.681" x2="43" y2="16.439" gradientTransform="matrix(1 0 0 -1 0 88)">
		<stop  offset="0" style="stop-color:#FFFFFF"/>
		<stop  offset="0.416" style="stop-color:#F5F4F8"/>
		<stop  offset="1" style="stop-color:#EFECF3"/>
	</linearGradient>
	<path style="fill:url(#SVGID_00000157295573436758480230000014093640778445852351_);" d="M80.4,21.2H5.6c-3.1,0-5.6,2.5-5.6,5.6v8
		c0,2.9,1.7,5.5,4.3,6.8L37,57.3c0.9-3.3,4.4-5.2,7.7-4.3c2.1,0.6,3.7,2.2,4.3,4.3l32.8-15.7c2.6-1.3,4.3-3.9,4.3-6.8v-8
		C86,23.7,83.5,21.2,80.4,21.2z"/>
	<path class="st3" d="M80.4,21H5.6C2.5,21,0,23.5,0,26.6v8c0,2.9,1.7,5.5,4.3,6.8L37,57.1c0.9-3.3,4.4-5.2,7.7-4.3
		c2.1,0.6,3.7,2.2,4.3,4.3l32.8-15.7c2.6-1.3,4.3-3.9,4.3-6.8v-8C86,23.5,83.5,21,80.4,21z"/>
	<path class="st5" d="M4.3,41.6L5.2,42V26.8c0-3.1,2.5-5.6,5.6-5.6H5.6c-3.1,0-5.6,2.5-5.6,5.6v8C0,37.7,1.7,40.3,4.3,41.6L4.3,41.6
		z"/>
</g>
<linearGradient id="SVGID_00000110462786235382998640000014034183351050846131_" gradientUnits="userSpaceOnUse" x1="15.644" y1="78.033" x2="60.251" y2="78.033" gradientTransform="matrix(1 0 0 -1 0 88)">
	<stop  offset="0" style="stop-color:#A7CF39"/>
	<stop  offset="1" style="stop-color:#006726"/>
</linearGradient>
<path style="fill:url(#SVGID_00000110462786235382998640000014034183351050846131_);" d="M58.7,1.5H26.3c-4.7,0-8.5,3.8-8.5,8.5v8.3
	h6.1v-8.3c0-1.4,1.1-2.5,2.5-2.5h32.3c1.4,0,2.5,1.1,2.5,2.5v8.3h6.1v-8.3C67.2,5.4,63.4,1.5,58.7,1.5z"/>
<path class="st7" d="M31,1.5h-4.6c-4.7,0-8.5,3.8-8.5,8.5v8.3h4.6v-8.3C22.4,5.4,26.2,1.5,31,1.5z"/>
<path class="st8" d="M63.3,7.6h-4.6c1.4,0,2.5,1.1,2.5,2.5v8.3h4.6v-8.3C65.8,8.7,64.7,7.6,63.3,7.6z"/>
<linearGradient id="SVGID_00000172416796276094162830000009594622030308361642_" gradientUnits="userSpaceOnUse" x1="37.5144" y1="29.0565" x2="52.1374" y2="28.9245" gradientTransform="matrix(1 0 0 -1 0 88)">
	<stop  offset="0" style="stop-color:#A7CF39;stop-opacity:0.5"/>
	<stop  offset="0.517" style="stop-color:#A7CF39;stop-opacity:0.5"/>
	<stop  offset="1" style="stop-color:#FFF3D9"/>
</linearGradient>
<path style="fill:url(#SVGID_00000172416796276094162830000009594622030308361642_);" d="M43,52.6c-3.5,0-6.4,2.9-6.4,6.4
	c0,3.5,2.9,6.4,6.4,6.4c3.5,0,6.4-2.9,6.4-6.4C49.4,55.5,46.5,52.6,43,52.6z"/>
<g class="st10">
	<path class="st11" d="M41.8,59c0-2.6,1.6-4.8,3.8-5.8c-0.8-0.4-1.7-0.6-2.6-0.6c-3.5,0-6.4,2.9-6.4,6.4c0,3.5,2.9,6.4,6.4,6.4
		c0.9,0,1.8-0.2,2.6-0.6C43.3,63.8,41.8,61.5,41.8,59z"/>
	<path class="st8" d="M43.5,60.3h-1.1c-0.7,0-1.3-0.6-1.3-1.3c0-0.7,0.6-1.3,1.3-1.3h1.1c0.7,0,1.3,0.6,1.3,1.3
		C44.8,59.7,44.3,60.3,43.5,60.3z"/>
</g>
<linearGradient id="SVGID_00000152968594609349082880000001473050795360161173_" gradientUnits="userSpaceOnUse" x1="13.466" y1="66.816" x2="27.309" y2="66.816" gradientTransform="matrix(1 0 0 -1 0 88)">
	<stop  offset="0" style="stop-color:#A7CF39"/>
	<stop  offset="1" style="stop-color:#006726"/>
</linearGradient>
<path style="fill:url(#SVGID_00000152968594609349082880000001473050795360161173_);" d="M27.1,17.9H16.6c-1.3,0-2.4,1.1-2.4,2.4
	v1.8c0,1.3,1.1,2.4,2.4,2.4h10.5c1.3,0,2.4-1.1,2.4-2.4v-1.8C29.5,19,28.4,17.9,27.1,17.9z"/>
<linearGradient id="SVGID_00000074409218794240907190000012189262100082721696_" gradientUnits="userSpaceOnUse" x1="55.862" y1="66.816" x2="69.705" y2="66.816" gradientTransform="matrix(1 0 0 -1 0 88)">
	<stop  offset="0" style="stop-color:#A7CF39"/>
	<stop  offset="1" style="stop-color:#006726"/>
</linearGradient>
<path style="fill:url(#SVGID_00000074409218794240907190000012189262100082721696_);" d="M69.4,17.9H58.9c-1.3,0-2.4,1.1-2.4,2.4
	v1.8c0,1.3,1.1,2.4,2.4,2.4h10.5c1.3,0,2.4-1.1,2.4-2.4v-1.8C71.9,19,70.8,17.9,69.4,17.9z"/>
<g>
	<g>
		<path id="H" class="st8" d="M19.3,22.1v-1.8c0-1.3,1.1-2.4,2.4-2.4h-5.2c-1.3,0-2.4,1.1-2.4,2.4v1.8c0,1.3,1.1,2.4,2.4,2.4h5.2
			C20.4,24.5,19.3,23.4,19.3,22.1z"/>
	</g>
	<g>
		<path id="H_00000026846879617400838710000006329511924326217133_" class="st8" d="M61.7,22.1v-1.8c0-1.3,1.1-2.4,2.4-2.4h-5.2
			c-1.3,0-2.4,1.1-2.4,2.4v1.8c0,1.3,1.1,2.4,2.4,2.4h5.2C62.8,24.5,61.7,23.4,61.7,22.1z"/>
	</g>
</g>
</svg>
