<?xml version="1.0" encoding="utf-8"?>
<!-- Generator: Adobe Illustrator 25.4.0, SVG Export Plug-In . SVG Version: 6.00 Build 0)  -->
<svg version="1.1" id="Layer_1" xmlns:v="https://vecta.io/nano"
	 xmlns="http://www.w3.org/2000/svg" xmlns:xlink="http://www.w3.org/1999/xlink" x="0px" y="0px" viewBox="0 0 344 404"
	 style="enable-background:new 0 0 344 404;" xml:space="preserve">
<style type="text/css">
	.st0{fill:#EFECF3;}
	.st1{fill:#F5F4F8;}
	.st2{opacity:0.1;enable-background:new    ;}
	.st3{fill:#A7CF39;}
	.st4{fill:#1F1B2D;}
	.st5{opacity:0.2;enable-background:new    ;}
	.st6{fill:#FFFFFF;}
	.st7{fill:#006726;}
	.st8{fill:#FD5631;}
	.st9{fill:#EB996E;}
	.st10{fill:#D1734A;}
	.st11{fill:#666276;}
	.st12{opacity:9.000000e-02;enable-background:new    ;}
</style>
<path class="st0" d="M237.9,86.2L29.4,108.2l28,265.4l208.5-21.9L237.9,86.2z"/>
<g>
	<path class="st1" d="M245.9,91.9L39.5,122.8l36.4,242.7l206.4-30.9L245.9,91.9L245.9,91.9z"/>
	<path class="st1" d="M327,113.8c0,0-8.2-5.4-18.1,14.1s-13.7,30.8-13.7,30.8s-2.6,4-5.4,1.4s-6.7-10.3-11.4-8.9
		c-5,1.4-6.6,6.9-5.7,15.1s2.4,26,2.5,27.6s-0.8,3.9-3,2.4s-14.9-15.6-21.3-9.2s0,28.6,0.7,31.1s0.2,3.5-1,4s-5-4.5-8.8-8.4
		s-8.8-7.7-12.2-3.7s-4.4,20.7,11.4,47.7l8.2,12.1l14.6-0.8c31.2-3.6,43.8-14.5,45-19.6s-4.9-6.8-10.3-7.5s-11.8-0.6-12-1.9
		s0.3-2.3,2.7-3.2s23.9-9.2,25.2-18.2s-17.6-10.5-20.2-11.4s-1.2-3,0.1-3.8s16.5-10.5,23.6-14.6s10.5-8.8,8.6-13.6
		c-1.8-4.6-10.2-3.1-14-3.8s-2.1-5.2-2.1-5.2s6.7-9.8,16.3-29.5s0.1-23,0.1-23"/>
</g>
<g>
	<path class="st2" d="M318.1,131.3l-0.2,0.4l-0.6,1.2l-2.2,4.7l-8.4,17.1l-28.2,56.2l-28.4,56.2l-8.5,17.1l-2.3,4.6l-0.6,1.2
		l-0.2,0.4c0,0,0.1-0.1,0.2-0.4l0.6-1.2l2.2-4.7L250,267l28.2-56.2l28.4-56.1l8.5-17.1l2.3-4.6l0.6-1.2L318.1,131.3L318.1,131.3z"/>
	<path class="st2" d="M283.3,162.1c0.2,0.3,0.3,0.6,0.4,1l0.8,2.7l2.3,9.2l2.1,9.2l0.7,2.8c0.1,0.3,0.2,0.7,0.2,1
		c-0.2-0.3-0.3-0.6-0.4-1l-0.8-2.7l-2.3-9.2l-2.2-9.2l-0.7-2.8C283.3,162.8,283.3,162.4,283.3,162.1L283.3,162.1z M291.1,188.2
		c0-0.1,6.6-2.1,14.8-4.5s14.8-4.2,14.9-4s-6.6,2.1-14.8,4.5L291.1,188.2z M272.6,221.1c0.4-0.1,0.7-0.1,1.1,0h2.9l9.6-0.1l9.6-0.6
		l2.9-0.2c0.4,0,0.7,0,1.1,0c-0.3,0.1-0.7,0.2-1.1,0.2l-2.9,0.4l-9.6,0.7h-9.7l-2.9-0.2C273.3,221.2,272.9,221.2,272.6,221.1
		L272.6,221.1z M260.2,199c0.2,0.2,0.4,0.5,0.6,0.8l1.4,2.3c1.2,2,2.1,5.3,4.5,7.7l4.4,7.8l1.3,2.4c0.2,0.3,0.3,0.6,0.4,0.9
		c-0.2-0.2-0.4-0.5-0.6-0.8l-1.4-2.3l-4.5-7.7l-4.4-7.8l-1.3-2.3C260.5,199.7,260.3,199.3,260.2,199L260.2,199z M240.1,226
		c0.3,0.3,0.5,0.7,0.7,1.1l1.8,2.9l5.9,9.8l5.7,9.9l1.7,3c0.2,0.4,0.4,0.7,0.6,1.1c-0.3-0.3-0.5-0.7-0.7-1l-1.8-3l-5.8-9.8l-5.7-9.9
		l-1.7-3C240.5,226.7,240.3,226.3,240.1,226L240.1,226z M256.3,253c0.5-0.1,0.9-0.1,1.4-0.1l3.7-0.1l12.2-0.6
		c4.8-0.3,9.1-0.7,12.2-1l3.7-0.4c0.5-0.1,0.9-0.1,1.4-0.1c-0.4,0.1-0.9,0.2-1.3,0.3c-1.2,0.2-2.5,0.4-3.7,0.5
		c-3.1,0.4-7.4,0.8-12.2,1.1s-9.1,0.4-12.2,0.5h-3.7C257.2,253.1,256.8,253.1,256.3,253L256.3,253z"/>
</g>
<path class="st3" d="M14.2,247c1.4-0.7,3-1.2,4.6-1.3s3.2,0.1,4.8,0.6c3.1,1.1,5.8,2.9,8.1,5.2c4.5,4.3,7.3,10.9,8.9,17
	c-6.8,1.4-13.8-2.5-17.3-4.7C17.9,260.3,10.1,250.7,14.2,247 M52.4,269.9c-1.6-0.8-3-2-4-3.5c-1-1.5-1.6-3.2-1.7-5
	c-0.1-1.8,0.2-3.6,0.8-5.3c0.6-1.7,1.6-3.2,2.8-4.6c1.1-1.2,2.6-2.4,4.3-2.3c0.8,0.1,1.5,0.4,2.1,0.8c0.6,0.5,1.1,1.1,1.4,1.8
	c0.6,1.5,0.8,3,0.6,4.6C58.3,261.7,56.8,266.8,52.4,269.9"/>
<g>
	<path class="st4" d="M63.4,286.8c-0.3-0.3-0.6-0.6-0.9-0.9l-2.3-2.6c-1.9-2.2-4.7-5.3-6.6-9.5c-1.6-3.6-2.2-7.5-1.8-11.4
		c0.1-1.2,0.4-2.3,0.8-3.4c0.1-0.3,0.2-0.6,0.4-0.9c0.1-0.2,0.1-0.3,0.2-0.3c-0.5,1.5-0.9,3.1-1.1,4.6c-0.3,3.8,0.4,7.7,2,11.2
		c1.8,4.1,4.5,7.2,6.4,9.5l2.2,2.7C62.9,286.1,63.2,286.4,63.4,286.8L63.4,286.8z"/>
	<path class="st4" d="M20.7,253.7c0.2,0.1,0.3,0.2,0.5,0.3l1.3,0.9l4.8,3.4c5.3,3.8,10.4,7.7,15.6,11.6c5.1,4,10.2,8,15.2,12.2
		l4.5,3.8l1.2,1.1l0.4,0.4c-0.2-0.1-0.3-0.2-0.5-0.3l-1.3-1l-4.6-3.7l-15.3-12l-15.5-11.7l-4.7-3.5l-1.3-1
		C21,254,20.9,253.9,20.7,253.7L20.7,253.7z"/>
</g>
<path class="st3" d="M49.9,279.4c-3.4-1.8-7.1-2.8-10.9-2.8c-3.8-0.1-7.6,0.8-11,2.5c-1.7,0.9-3.5,2.3-3.4,4.3s2.2,3.1,4,3.6
	c3.9,1.1,8,1,11.9-0.3c3.8-1.3,7.2-3.7,9.7-6.9"/>
<path class="st4" d="M33.2,281.9c0.3-0.2,0.7-0.4,1.1-0.6c0.4-0.2,0.9-0.4,1.3-0.6c0.6-0.2,1.2-0.5,1.8-0.6c0.7-0.2,1.5-0.5,2.2-0.6
	c0.9-0.2,1.7-0.4,2.6-0.5c2-0.2,4-0.2,6,0c2,0.2,4,0.7,5.8,1.4c0.8,0.3,1.6,0.7,2.4,1.1c0.7,0.3,1.3,0.7,2,1.1
	c0.6,0.3,1.1,0.8,1.5,1.1c0.4,0.3,0.8,0.6,1.1,0.9c0.3,0.2,0.6,0.5,0.9,0.8c-0.1,0.1-1.3-1.1-3.7-2.5c-0.6-0.4-1.3-0.7-2-1.1
	c-0.8-0.4-1.6-0.7-2.4-1c-1.9-0.7-3.8-1.1-5.7-1.4c-2-0.2-3.9-0.2-5.9,0c-0.9,0.1-1.7,0.2-2.6,0.4c-0.8,0.1-1.5,0.4-2.2,0.5
	C34.7,281.2,33.2,282,33.2,281.9L33.2,281.9z"/>
<path class="st0" d="M260.2,311.1c-5.7-3.6-7.7-8.3-8.6-15c-0.4-3.3-0.1-6.8,0.9-10c1-3.2,2.7-6.2,4.9-8.7c3.8-4.2,9.1-7,11.8-11.9
	c2.9-5.2,2.5-12.1,6.7-16.5c2.9-3,7.2-3.9,10.7-6c2.9-1.7,5.2-4.2,7.8-6.3s5.8-3.9,9.1-3.8c5.1,0.2,9.2,5,9.6,10s-2.2,10-5.9,13.4
	c-2.7,2.5-6.1,4.4-7.8,7.7c-3.2,6.1,0.7,14.3-2.8,20.2c-2.5,4.3-8.6,6.6-9.2,11.6c-0.2,1.8,0.3,3.7,0.4,5.5
	c0.2,5.8-5.1,10.6-10.7,11.9S265.6,313.1,260.2,311.1"/>
<path class="st5" d="M293.5,253.8c-0.2,0.2-0.4,0.5-0.6,0.7l-1.7,1.8l-2.7,2.9l-3.4,4l-3.9,5l-2.1,2.9l-2.1,3.1
	c-3,4.7-5.6,9.6-7.8,14.8c-2.2,5.1-4,10.4-5.3,15.8c-0.6,2.5-1.1,4.9-1.5,7.2l-0.9,6.3c-0.2,1.9-0.3,3.7-0.4,5.2s-0.1,2.9-0.2,4
	L261,330c0,0.3,0,0.6-0.1,0.9c-0.1-0.3-0.1-0.6-0.1-0.9c0-0.6,0-1.5-0.1-2.5c0-1.3,0-2.6,0-4c0.1-1.5,0.1-3.3,0.3-5.3s0.4-4,0.8-6.3
	s0.8-4.7,1.4-7.2c1.3-5.5,3.1-10.8,5.3-16c2.3-5.1,4.9-10.1,7.9-14.8l2.1-3.1c0.7-1,1.4-2,2.1-2.9c1.3-1.9,2.7-3.5,4-5
	s2.4-2.8,3.5-3.9s2-2.1,2.8-2.9l1.8-1.7C293,254.1,293.2,253.9,293.5,253.8L293.5,253.8z"/>
<path class="st6" d="M265.3,106.2H56.6v245.5h208.7V106.2z"/>
<path class="st4" d="M265.3,351.7l-0.2-245.5l0.2,0.2H56.6l0.2-0.2v245.5l-0.2-0.2L265.3,351.7l-208.6,0.2h-0.2v-0.2V106.2V106h0.2
	h208.7h0.2v0.2L265.3,351.7L265.3,351.7z M157.5,219.6v-0.5v-1.3v-5.1l-0.1-18.9l0.1,0.1l-81.9,0.1l0.2-0.2v25.7l-0.2-0.2l58.5,0.1
	l17.1,0.1h4.6h1.2L157.5,219.6l-0.3-0.1h-1.2h-4.6l-17.1,0.1l-58.7,0.1h-0.2v-26h0.2l81.9,0.1h0.1v0.1l-0.1,19v5v1.3
	C157.6,219.5,157.5,219.6,157.5,219.6L157.5,219.6z M248.2,254.4v-1.7v-4.9l-0.1-19.1l0.1,0.1l-172.5,0.1l0.2-0.2v25.7l-0.2-0.2
	l122.8,0.1l36.5,0.1h9.9h2.6L248.2,254.4l-0.8-0.1h-2.5H235l-36.5,0.1l-122.9,0.1h-0.2v-26h0.2l172.5,0.1h0.1v0.1l-0.1,19.1v4.9
	L248.2,254.4L248.2,254.4z M248.2,289v-1.7v-4.9l-0.1-19.1l0.1,0.1l-172.5,0.1l0.2-0.2V289l-0.2-0.2l122.8,0.1l36.5,0.1h9.9h2.6
	L248.2,289l-0.8-0.1h-2.5H235l-36.5,0.1l-122.9,0.1h-0.2v-26h0.2l172.5,0.1h0.1v0.1l-0.1,19.1v4.9L248.2,289L248.2,289z
	 M248.2,219.6v-0.5v-1.3v-5.1l-0.1-18.9l0.1,0.1l-81.9,0.1l0.2-0.2v25.7l-0.2-0.2l58.5,0.1l17.1,0.1h4.6h1.2L248.2,219.6l-0.3-0.1
	h-1.2H242l-17.1,0.1l-58.7,0.1h-0.2v-0.2v-25.7v-0.2h0.2l81.9,0.1h0.1v0.1l-0.1,19v5v1.3C248.2,219.4,248.2,219.6,248.2,219.6
	L248.2,219.6z"/>
<g>
	<path class="st7" d="M92.8,210.5c-0.2,0-0.4,0-0.6,0l-1.8,0.1l-6.7,0.1h-0.3l0.1-0.2c0.2-0.8,0.7-1.6,1.3-2.2
		c0.7-0.6,1.6-1,2.5-1.1l0,0.4c-0.5-0.2-1-0.6-1.3-1.1c-0.3-0.5-0.5-1-0.6-1.6c-0.1-0.6,0.1-1.3,0.4-1.8c0.3-0.6,0.8-1,1.4-1.3
		c0.5-0.2,1.2-0.3,1.7-0.2c0.6,0.1,1.1,0.4,1.5,0.9c0.7,0.8,1,1.9,0.7,3c-0.1,0.4-0.3,0.9-0.6,1.2c-0.3,0.3-0.7,0.6-1.1,0.8v-0.3
		c0.7,0.1,1.4,0.4,2,0.8c0.4,0.3,0.8,0.7,1.1,1.2C92.6,209.6,92.7,210,92.8,210.5l-0.1-0.3c-0.1-0.3-0.3-0.6-0.5-0.9
		c-0.3-0.5-0.8-0.9-1.3-1.2c-0.5-0.3-1.1-0.5-1.7-0.6l-0.5-0.1l0.5-0.2c0.4-0.2,0.7-0.4,1-0.7c0.3-0.3,0.4-0.7,0.5-1.1
		c0.2-0.9,0-1.9-0.6-2.6c-0.3-0.4-0.8-0.6-1.3-0.7c-0.5-0.1-1-0.1-1.5,0.2c-0.5,0.2-0.9,0.6-1.2,1.1c-0.3,0.5-0.4,1-0.3,1.6
		c0.1,1,0.7,1.9,1.6,2.3l0.7,0.3l-0.7,0.1c-0.8,0.1-1.6,0.5-2.3,1c-0.6,0.5-1,1.2-1.2,2l-0.2-0.2l6.6,0.1h1.9
		C92.3,210.4,92.6,210.5,92.8,210.5L92.8,210.5z M188.8,210.5c-0.2,0-0.4,0-0.6,0l-1.9,0.1l-6.7,0.1h-0.3l0.1-0.2
		c0.2-0.8,0.7-1.6,1.3-2.2c0.7-0.6,1.6-1,2.5-1.2l0,0.4c-0.5-0.2-1-0.6-1.3-1.1s-0.5-1-0.6-1.6c-0.1-0.6,0.1-1.3,0.4-1.8
		c0.3-0.6,0.8-1,1.4-1.3c0.5-0.2,1.2-0.3,1.7-0.2c0.6,0.1,1.1,0.4,1.5,0.9c0.3,0.4,0.6,0.9,0.7,1.4s0.1,1.1,0,1.6
		c-0.1,0.4-0.3,0.9-0.6,1.2c-0.3,0.3-0.7,0.6-1.1,0.8v-0.3c0.7,0.1,1.4,0.4,2,0.8c0.4,0.3,0.8,0.7,1.1,1.2
		C188.6,209.6,188.7,210,188.8,210.5l-0.1-0.3c-0.1-0.3-0.3-0.6-0.5-0.9c-0.3-0.5-0.8-0.9-1.3-1.2c-0.5-0.3-1.1-0.5-1.7-0.6
		l-0.5-0.1l0.5-0.2c0.4-0.2,0.7-0.4,1-0.7c0.3-0.3,0.4-0.7,0.5-1.1c0.1-0.5,0.1-0.9,0-1.4c-0.1-0.5-0.3-0.9-0.6-1.2
		c-0.3-0.4-0.8-0.6-1.3-0.8c-0.5-0.1-1,0-1.5,0.2c-0.5,0.2-0.9,0.6-1.2,1.1c-0.3,0.5-0.4,1-0.3,1.6c0,0.5,0.2,1,0.5,1.4
		c0.3,0.4,0.7,0.7,1.1,0.9l0.7,0.3l-0.7,0.1c-0.8,0.1-1.6,0.5-2.3,1c-0.6,0.5-1,1.2-1.2,2l-0.2-0.2l6.6,0.1h1.9
		C188.3,210.4,188.6,210.4,188.8,210.5L188.8,210.5z M91.2,273.9c0-0.2-0.1-0.3-0.1-0.5c0-0.4-0.1-0.9-0.3-1.2
		c-0.3-0.6-0.9-0.9-1.5-1c-0.4-0.1-0.8,0-1.1,0.2c-0.3,0.2-0.6,0.4-0.8,0.7c-0.2,0.3-0.3,0.6-0.3,0.9v1l-0.2-0.2
		C88.4,273.7,89.8,273.8,91.2,273.9c-1.4,0.2-2.8,0.2-4.3,0.2h-0.2v-0.2v-1c0-0.4,0.1-0.8,0.4-1.1c0.5-0.8,1.4-1.2,2.3-1
		c0.4,0.1,0.7,0.2,1,0.4c0.3,0.2,0.5,0.5,0.7,0.8c0.2,0.4,0.3,0.9,0.2,1.4C91.3,273.8,91.2,274,91.2,273.9L91.2,273.9z M89.8,279.2
		c-0.2-0.3-0.3-0.6-0.4-0.9v-0.1l0.1-0.1c0.3-0.2,0.3-0.6,0.2-0.9c0-0.1-0.1-0.2-0.2-0.2c-0.1-0.1-0.2-0.1-0.3-0.1
		c-0.2,0-0.4,0-0.5,0.2c-0.1,0.1-0.1,0.1-0.2,0.2c0,0.1,0,0.2,0,0.3c0,0.1,0,0.2,0.1,0.3c0.1,0.1,0.1,0.1,0.2,0.2l0.1,0.1l0,0.1
		l-0.2,1l-0.2-0.2C88.9,279,89.4,279.1,89.8,279.2c-0.4,0.1-0.9,0.1-1.3,0.1h-0.2v-0.2l0.2-1l0.1,0.2c-0.1-0.1-0.2-0.2-0.3-0.3
		c-0.1-0.1-0.1-0.3-0.2-0.4c0-0.1,0-0.3,0-0.4s0.1-0.3,0.2-0.4c0.2-0.3,0.6-0.4,0.9-0.3c0.2,0,0.3,0.1,0.4,0.2
		c0.1,0.1,0.2,0.2,0.3,0.3c0.1,0.2,0.2,0.5,0.1,0.7c-0.1,0.2-0.2,0.5-0.4,0.6l0.1-0.2C89.8,278.5,89.8,278.8,89.8,279.2L89.8,279.2z
		"/>
	<path class="st7" d="M91.8,273.9c0.1,0,0.2,0,0.4,0c0.3,0.1,0.6,0.3,0.8,0.5c0.2,0.2,0.3,0.5,0.4,0.8v0.9v2.1v1.2
		c0,0.5,0,0.9,0,1.4c-0.1,0.3-0.2,0.5-0.4,0.7c-0.2,0.2-0.4,0.4-0.6,0.4c-0.3,0.1-0.5,0.1-0.8,0.1h-0.8h-3.2h-0.9
		c-0.5,0-1-0.2-1.3-0.5c-0.2-0.2-0.3-0.4-0.4-0.6c-0.1-0.2-0.1-0.5-0.1-0.7v-3.6v-0.9c0-0.3,0-0.6,0.1-0.9c0.2-0.6,0.8-1,1.4-1.1
		l-0.2,0.2v-1.1c0-0.4,0.1-0.7,0.3-1.1c0.4-0.6,1-1.1,1.7-1.3c0.5-0.2,1.1-0.2,1.7-0.1s1.1,0.5,1.4,0.9c0.5,0.5,0.8,1.3,0.7,2
		C91.9,273.4,91.9,273.7,91.8,273.9c0-0.2-0.1-0.5-0.1-0.8c0-0.7-0.3-1.4-0.8-1.9c-0.3-0.3-0.6-0.5-1-0.7c-0.4-0.1-0.8-0.2-1.2-0.1
		c-0.4,0.1-0.8,0.2-1.1,0.4c-0.3,0.2-0.6,0.6-0.8,0.9c-0.2,0.3-0.3,0.6-0.3,1v1.1v0.2h-0.2c-0.2,0-0.5,0.1-0.6,0.3
		c-0.2,0.2-0.3,0.4-0.4,0.6c-0.1,0.3-0.1,0.5-0.1,0.8v0.9v3.6c0,0.5,0.2,1,0.7,1.3c0.2,0.1,0.5,0.2,0.7,0.2h4.1c0.5,0,1,0,1.4-0.1
		c0.2-0.1,0.4-0.2,0.5-0.4s0.2-0.3,0.3-0.5c0.1-0.4,0.1-0.9,0.1-1.3v-1.2v-2.1v-0.9c0-0.2-0.1-0.4-0.2-0.6
		C92.6,274.3,92.2,274.1,91.8,273.9L91.8,273.9z M95.4,247c0-0.2,0-0.4,0-0.6l-0.1-1.7l-0.2-6l0.2,0.2L82.9,239l0.2-0.2v1.1v1.1v2.1
		v4l-0.2-0.2h8.8h2.6C94.6,246.9,95,246.9,95.4,247c-0.4,0-0.7,0-1,0l-2.5,0.1l-9,0.2h-0.2v-0.2l0-4v-2.1v-1.1v-1.1l0.2-0.2
		l12.3-0.1h0.2v0.2v6.1v1.6C95.4,246.6,95.4,246.8,95.4,247L95.4,247z"/>
	<path class="st7" d="M95.3,238.7c-0.5,0.5-1.1,1-1.7,1.4l-4.3,3.2H89l-0.1-0.1l-0.2-0.1l-0.3-0.2l-0.6-0.4l-1.2-0.8l-2-1.4
		c-0.6-0.4-1.2-0.9-1.7-1.4c0.7,0.3,1.3,0.7,1.9,1.1l2,1.3l1.2,0.8l0.6,0.4l0.3,0.2l0.2,0.1l0.1,0.1h0H89l4.4-3.1
		C94,239.5,94.6,239.1,95.3,238.7L95.3,238.7z"/>
	<path class="st7" d="M83.3,247.1c0.5-1,1.1-1.9,1.9-2.7c0.6-0.9,1.4-1.8,2.2-2.5c-0.5,1-1.1,1.9-1.9,2.7
		C84.8,245.6,84.1,246.4,83.3,247.1L83.3,247.1z M91.4,241.9c0.8,0.7,1.5,1.5,2.1,2.4c0.7,0.8,1.3,1.7,1.8,2.7
		c-0.8-0.7-1.5-1.5-2.1-2.4C92.5,243.8,91.9,242.9,91.4,241.9L91.4,241.9z"/>
	<g>
		<path id="B" class="st8" d="M246,302.3H77.8c-1.2,0-2.2,1-2.2,2.2v22c0,1.2,1,2.2,2.2,2.2H246c1.2,0,2.2-1,2.2-2.2v-22
			C248.2,303.3,247.2,302.3,246,302.3z"/>
	</g>
</g>
<g>
	<path id="B_00000081605823349218201390000003199827931220603834_" d="M246,302.3H77.8c-1.2,0-2.2,1-2.2,2.2v22c0,1.2,1,2.2,2.2,2.2
		H246c1.2,0,2.2-1,2.2-2.2v-22C248.2,303.3,247.2,302.3,246,302.3z"/>
</g>
<g>
	<path id="B_00000182494235116681865610000016656701118384921002_" class="st7" d="M246,298.7H77.8c-1.2,0-2.2,1-2.2,2.2v22
		c0,1.2,1,2.2,2.2,2.2H246c1.2,0,2.2-1,2.2-2.2v-22C248.2,299.6,247.2,298.7,246,298.7z"/>
</g>
<path class="st6" d="M147.3,312.4c0-0.4,0.1-0.8,0.2-1.1c0.1-0.4,0.4-0.7,0.6-0.9c0.3-0.3,0.6-0.5,1-0.6s0.7-0.2,1.1-0.2
	c0.4,0,0.8,0.1,1.1,0.2c0.4,0.1,0.7,0.4,1,0.7l-0.5,0.5c-0.3-0.3-0.7-0.5-1.1-0.6c-0.4-0.1-0.9-0.1-1.2,0.1
	c-1.1,0.4-1.6,1.7-1.2,2.8c0.1,0.1,0.1,0.3,0.2,0.4c0.2,0.4,0.6,0.6,1,0.8c0.8,0.3,1.7,0.1,2.3-0.5l0.5,0.5c-0.3,0.3-0.6,0.5-1,0.7
	c-0.4,0.1-0.8,0.2-1.1,0.2c-0.4,0-0.8,0-1.1-0.2c-0.4-0.1-0.7-0.3-0.9-0.6c-0.3-0.3-0.5-0.6-0.6-0.9
	C147.4,313.1,147.3,312.7,147.3,312.4L147.3,312.4z M157.1,315.1l-1.2-1.7h-0.3h-1.4v1.7h-0.8v-5.5h2.2c1.4,0,2.3,0.7,2.3,1.9
	c0,0.4-0.1,0.8-0.3,1.1c-0.2,0.3-0.5,0.5-0.9,0.7l1.3,1.8L157.1,315.1L157.1,315.1z M157.1,311.5c0-0.8-0.5-1.2-1.5-1.2h-1.3v2.5
	h1.3C156.6,312.8,157.1,312.3,157.1,311.5L157.1,311.5z M163.2,314.4v0.7h-4v-5.5h3.9v0.7H160v1.7h2.8v0.7H160v1.8H163.2z
	 M168,313.7H165l-0.6,1.4h-0.8l2.5-5.5h0.8l2.5,5.5h-0.8L168,313.7L168,313.7z M167.7,313.1l-1.2-2.7l-1.2,2.7H167.7z M171,310.3
	h-1.9v-0.7h4.6v0.7h-1.9v4.8H171L171,310.3L171,310.3z M178.5,314.4v0.7h-4v-5.5h3.9v0.7h-3.1v1.7h2.8v0.7h-2.8v1.8H178.5z"/>
<path class="st0" d="M137.1,147.8c22.3-22.2,22.3-58.3,0-80.5s-58.3-22.2-80.6,0s-22.3,58.3,0,80.5S114.9,170,137.1,147.8z"/>
<path class="st4" d="M129.5,30.6c-1,1.2-1.6,2.8-1.7,4.4c-0.1,1.6,0.2,3.2,0.9,4.6c0.7,1.3,1.8,2.4,2,3.9c0.3,2.4-2,4.5-1.6,6.8
	c0.3,1.6,1.6,2.7,2.4,4.2c0.9,1.9,0.7,4.2-0.6,5.8c-1,1.3-2.7,2.1-3.3,3.6c-0.5,1.1-0.4,2.4-0.8,3.5c-0.4,0.9-1,1.6-1.7,2.2
	c-0.8,0.6-1.7,0.9-2.6,1c-1.9,0.2-3.8,0.1-5.7-0.3l0.4-2c-0.4,0.5-0.8,1-1.4,1.3s-1.2,0.5-1.8,0.5c-1.3,0-2.6-0.2-3.8-0.6
	c-0.8-3.5-1.5-7.1-0.4-10.5c1-3,3.3-5.4,5.3-8c2.2-2.8,3.9-5.9,5.1-9.3c0.9-2.4,1.5-4.9,2.8-7.1s3.2-4.2,5.7-4.7"/>
<path class="st9" d="M166.6,78.4l-11.3,0.8l-0.1-2.9c-0.1-1.4,0.2-2.9,1-4.1c0.1-0.2,0.2-0.4,0.3-0.7c0.1-0.9-1.2-5.2-1.6-6.7
	c-0.6-1.9,0.5-2.9,0.9-2.1c0.8,1.4,2.8,7.5,3.4,8.1s0.3-2.6,0.3-2.6c-1-6.7-1.4-7.7-0.2-7.9c1.4-0.3,2.9,9.7,2.9,9.7
	s-0.2-1.4,0.9-1.7s1.6,1.1,1.6,1.1c-0.1-0.7,0.9-0.8,0.9-0.8C167.9,68.9,166.6,78.5,166.6,78.4l-11.3,0.9l-5.4,37.7l-5.8-8.8
	l-15.1,10.7l13.6,16.2c1.2,1.4,2.7,2.5,4.3,3.3c1.7,0.7,3.5,1.1,5.3,1c3-0.1,5.8-1.3,8-3.4c2.1-2.1,3.4-4.9,3.6-7.9L166.6,78.4
	L166.6,78.4z"/>
<g>
	<path class="st10" d="M157.7,78.5c0-0.1,0.6-0.6,1.4-1.6c0.5-0.6,0.9-1.2,1.3-1.8L161,74c0.2-0.4,0.4-0.8,0.4-1.2
		c0-0.2-0.1-0.4-0.3-0.5c-0.2,0-0.4,0-0.6,0.1c-0.4,0.2-0.9,0.5-1.3,0.8c-0.6,0.5-1.2,1.1-1.6,1.7l-0.1,0.2l-0.1-0.2
		c-0.2-0.4-0.5-0.8-0.9-1.1c0,0,0.6,0.1,1.1,1h-0.2c0.4-0.7,1-1.4,1.6-1.9c0.4-0.3,0.9-0.6,1.3-0.8c0.3-0.2,0.6-0.2,0.9-0.1
		c0.3,0.1,0.6,0.4,0.6,0.8c0,0.5-0.2,1-0.4,1.5c-0.2,0.4-0.4,0.8-0.7,1.2c-0.4,0.6-0.9,1.3-1.4,1.8
		C158.9,77.7,158.3,78.2,157.7,78.5L157.7,78.5z M162.2,70.5c0.1,0.7,0.1,1.4,0,2.1c0,0.7-0.1,1.4-0.1,2.2c0,0.4,0,0.9,0,1.3
		c0,0.4,0.4,0.7,0.7,0.6s0.4-0.6,0.6-1.1l0.3-1.3l0.4-2.2c0.1-0.7,0.2-1.4,0.5-2c0,0.7-0.1,1.4-0.2,2.1l-0.3,2.2l-0.3,1.3
		c0,0.3-0.1,0.5-0.3,0.8c-0.1,0.2-0.3,0.4-0.5,0.6c-0.3,0.1-0.7,0.1-0.9-0.2c-0.2-0.2-0.3-0.5-0.4-0.7c0-0.5,0-0.9,0-1.4l0.2-2.2
		C161.9,71.8,162,71.2,162.2,70.5L162.2,70.5z"/>
	<path class="st10" d="M164.1,73.4c0.1,0-0.1,0.5,0,1.2c0,0.4,0.1,0.8,0.3,1.1c0.1,0.1,0.2,0.1,0.4,0c0.1-0.2,0.3-0.5,0.4-0.7
		c0.5-1.3,0.9-2.6,1.2-3.9c0.1,1.4-0.2,2.9-0.8,4.1c-0.1,0.3-0.3,0.6-0.4,0.8c-0.1,0.1-0.1,0.1-0.2,0.2c-0.1,0-0.2,0.1-0.3,0.1
		c-0.2,0-0.4-0.1-0.5-0.2c-0.2-0.2-0.3-0.5-0.3-0.7c0-0.2-0.1-0.4-0.1-0.6C163.8,73.8,164.1,73.3,164.1,73.4L164.1,73.4z"/>
</g>
<path class="st11" d="M116.6,144.2l1.1,16.4c-32.1,12.3-55.9-8.1-55.9-8.1l4.8-14.7l0.8-25.6l-6.2,6.8l-2.9-2.4l-14.7-12.2l-3.2-2.6
	l15.3-16.1C75.1,65,90.1,71.3,90.1,71.3l22.6,2.1c0,0,15.6,2.2,23.2,15.9l12.8,22.9l-19.3,13.8l-6.1-11.3L116.6,144.2L116.6,144.2z"
	/>
<path class="st9" d="M39.9,107.3l0.1,2.9c0.1,3.8,0.6,7.6,1.5,11.3v0.1c0.1,0.5,0.2,0.9,0.4,1.4c0.5,1.8,1.2,3.3,1.8,5.1
	c0.1,0.2,0.2,0.4,0.3,0.6c2-0.5,7.5-5.7,14.1-12.4l-14.7-12.2C41.4,106.1,40.5,107.1,39.9,107.3L39.9,107.3z M110.6,75.5l1.7-11.4
	c0,0,7.4-0.2,10.2-9.4c2.7-8.8,4.1-29.6,4.1-29.6c-4.8-2.8-10.4-4-15.9-3.5c-5.5,0.5-10.8,2.7-15.1,6.2l-5.7,45.4
	c-0.7,5.3,3.4,10,9,10.7C104.6,84.6,109.9,80.9,110.6,75.5z"/>
<g>
	<path class="st4" d="M121.6,40.9c0,0.3-0.2,0.6-0.4,0.8c-0.2,0.2-0.6,0.3-0.9,0.3c-0.2,0-0.3,0-0.4-0.1c-0.1-0.1-0.3-0.2-0.4-0.3
		c-0.1-0.1-0.2-0.3-0.2-0.4c0-0.1-0.1-0.3-0.1-0.5c0-0.3,0.2-0.6,0.5-0.8s0.6-0.3,0.9-0.3c0.5,0,0.9,0.3,1,0.8
		C121.6,40.6,121.6,40.7,121.6,40.9L121.6,40.9z M123.7,39.8c-0.2,0.1-1-0.7-2.3-0.8s-2.3,0.3-2.4,0.2s0.1-0.3,0.6-0.6
		c0.6-0.3,1.3-0.4,2-0.3c0.7,0.1,1.3,0.4,1.8,0.9C123.7,39.4,123.8,39.7,123.7,39.8z M108.3,39.3c0,0.3-0.2,0.6-0.5,0.8
		c-0.2,0.2-0.6,0.3-0.9,0.3c-0.2,0-0.3,0-0.4-0.1c-0.1-0.1-0.3-0.2-0.4-0.3c-0.1-0.1-0.2-0.3-0.2-0.4c0-0.1-0.1-0.3-0.1-0.5
		c0-0.3,0.2-0.6,0.4-0.8c0.2-0.2,0.6-0.3,0.9-0.3c0.3,0,0.6,0.2,0.8,0.4c0.1,0.1,0.2,0.3,0.2,0.4C108.3,39,108.3,39.1,108.3,39.3z"
		/>
	<path class="st4" d="M110.1,38.4c-0.2,0.1-1-0.7-2.3-0.8s-2.3,0.3-2.4,0.2s0.1-0.3,0.6-0.6c0.6-0.3,1.3-0.4,2-0.3
		c0.7,0.1,1.3,0.4,1.8,0.9C110.1,38,110.2,38.3,110.1,38.4z M113.9,48.4c0.7-0.1,1.4-0.1,2-0.1c0.3,0,0.6,0,0.7-0.1
		c0.1-0.2,0-0.5-0.1-0.7l-0.6-1.7c-0.8-2.5-1.4-4.5-1.2-4.5s0.9,2,1.7,4.4l0.6,1.7c0.1,0.3,0.1,0.6,0,0.9c-0.1,0.1-0.1,0.1-0.2,0.2
		c-0.1,0-0.2,0.1-0.3,0.1c-0.2,0-0.4,0-0.5,0C115.2,48.6,114.6,48.6,113.9,48.4L113.9,48.4z"/>
</g>
<path class="st10" d="M112.3,64.1c-4.4-0.5-8.7-2.3-12.2-5.1c0,0,2.2,6.9,11.7,7.3L112.3,64.1z"/>
<path class="st4" d="M116.8,22.2c0.6,1.5-0.3,3.2-1.7,4c-1.4,0.7-3,1.2-4.6,1.3c-1.6,0.1-3.1,0.7-4.4,1.7c-2.2,2-1.6,4.9-3.8,7.5
	c-0.5,0.7-1.2,1.3-2.1,1.6c-0.8,0.3-1.7,0.5-2.6,0.3c-1.8-0.3-4.1,0.2-5,2.2s0.2,3.6,1.2,5.5s0.7,3.8,0.2,5.9
	c-0.4,1.5-1.7,2.7-2,4.2c-0.5,2.4,1.6,5.1,0.2,7.1c-1.4,2-5,1.1-6.5,3c-0.6,0.7-0.9,1.6-1.7,1.9c-0.5,0.1-1,0-1.5-0.3L75.1,65
	l0.6-2.3c-0.5,0.6-1.2,1-1.9,1.2c-0.7,0.2-1.5,0.3-2.3,0.2s-1.5-0.4-2.1-0.9s-1.1-1-1.5-1.7c1.5-0.9,2.9-2,4.2-3.2
	c1.3-1.2,2-2.9,2.1-4.7c0.1-2.1-1.1-4.3-0.4-6.3c0.9-2.9,4.9-3.6,6.6-6.1c1.6-2.3,1.1-5.7,2.8-8c2-2.7,6.1-2.8,8.3-5.2
	c1.5-1.6,1.9-4,3-6c1.4-2.3,3.7-4,6.3-4.8c2.6-0.8,5.3-1.1,8-0.9c2-0.1,4,0.3,5.9,1.2c1.8,1,3.1,3,2.7,5"/>
<path class="st9" d="M97.5,38.6c-1-0.4-2-0.4-3-0.2c-0.5,0.1-1,0.3-1.4,0.6c-0.4,0.3-0.8,0.7-1.1,1.1c-0.5,0.9-0.7,2-0.4,3
	c0.2,1,0.7,2,1.4,2.8c0.4,0.6,1,1.1,1.6,1.5c0.3,0.2,0.7,0.3,1.1,0.3s0.7-0.1,1.1-0.3"/>
<path class="st10" d="M96.1,44.7c0.1,0.1-0.4,0.6-1.3,0.2c-0.5-0.2-0.8-0.6-1-1.1c-0.2-0.6-0.3-1.1-0.3-1.7c0-0.6,0.2-1.2,0.7-1.7
	c0.4-0.4,0.9-0.6,1.4-0.6c0.9,0.1,1.2,0.8,1,0.8s-0.4-0.3-1-0.3c-0.4,0.1-0.7,0.3-1,0.7s-0.4,0.7-0.3,1.1c0,1.1,0.2,2,0.8,2.4
	S96.1,44.6,96.1,44.7L96.1,44.7z"/>
<g>
	<path class="st4" d="M116.8,22.7c-0.4,1-0.4,2.1,0,3.1c0.4,1,1,1.9,2,2.4c1.1,0.6,2.3,0.8,3.2,1.6c0.8,0.9,1.3,2.1,1.4,3.3
		c0,1.2,0.3,2.4,0.7,3.5c0.5,1.2,1.6,1.9,2.9,1.8l2-6c0.7-2.2,1.5-4.6,1-6.8c-0.8-3.2-4-5.4-7.2-6.2c-1.5-0.5-3.1-0.5-4.5,0
		c-1.4,0.7-2.3,2.4-1.6,3.8 M110.7,35.2c-0.1,0.1-0.4,0-0.8-0.1c-0.6-0.1-1.2-0.2-1.8-0.2c-0.6,0-1.2,0.1-1.8,0.2
		c-0.5,0.1-0.7,0.2-0.8,0.1s0.1-0.4,0.6-0.7c1.3-0.7,2.8-0.7,4.1,0C110.5,34.8,110.7,35.1,110.7,35.2z M122.5,36.8
		c0,0.2-0.9,0.3-1.9,0.2s-1.8-0.4-1.8-0.7s0.9-0.3,1.9-0.1S122.5,36.5,122.5,36.8z M94.1,47.1c0.1,0.1,0.1,0.1,0.2,0.2
		c0.2,0.2,0.3,0.4,0.4,0.7c0.4,0.9,0.5,2,0.4,3c-0.3,1.5-0.8,2.9-1.4,4.2c-0.4,0.7-0.5,1.6-0.4,2.4c0.3,0.9,0.7,1.7,1.2,2.5
		c0.5,0.8,0.7,1.8,0.6,2.7s-0.5,1.8-1.1,2.5c-0.5,0.6-1.3,1.1-2.1,1.3c-0.7,0.1-1.4,0.2-2.1,0.2c-1,0-1.9,0.2-2.8,0.7
		c-0.3,0.2-0.5,0.5-0.8,0.8c0,0,0-0.1,0.1-0.3c0.1-0.2,0.3-0.4,0.6-0.6c0.8-0.6,1.8-0.9,2.8-0.9c0.7,0,1.3-0.1,2-0.3
		c0.7-0.2,1.4-0.6,1.9-1.2c0.5-0.6,0.9-1.4,1-2.2c0.1-0.9-0.1-1.8-0.6-2.6c-0.5-0.8-0.9-1.7-1.2-2.6c-0.2-0.9,0-1.8,0.4-2.6l1-2.1
		c0.2-0.6,0.4-1.3,0.6-1.9c0.2-1,0.1-1.9-0.2-2.8C94.3,47.4,94.1,47.1,94.1,47.1L94.1,47.1z"/>
	<path class="st4" d="M131.7,68.9c-0.2,0.1-0.3,0.1-0.5,0.1c-0.3,0-0.5-0.1-0.7-0.2c-0.2-0.1-0.4-0.3-0.6-0.5
		c-0.6-0.6-0.8-1.5-0.7-2.3c0.3-1,0.8-2,1.6-2.7c0.9-0.8,1.7-1.8,2.4-2.8c0.3-0.6,0.5-1.3,0.5-1.9c0-0.7-0.2-1.4-0.5-2.1
		c-0.7-1.4-1.4-2.9-1.9-4.4c-0.3-0.9-0.3-1.8,0-2.6c0.3-0.8,0.7-1.6,1.2-2.4c0.5-0.7,0.6-1.5,0.5-2.4c-0.2-0.8-0.7-1.5-1.2-2
		l-1.7-1.8c-0.5-0.6-0.9-1.4-1.1-2.2c-0.3-1.5-0.3-3,0.1-4.4l0.9-3.7c0.5-1.8,0.4-3.7-0.3-5.4c-0.3-0.6-0.7-1.1-1.1-1.6l0.1,0.1
		c0.1,0.1,0.2,0.2,0.3,0.3c0.4,0.4,0.7,0.8,0.9,1.3c0.3,0.7,0.6,1.5,0.6,2.3c0.1,1.1,0,2.1-0.2,3.1l-0.9,3.7c-0.3,1.4-0.3,2.8,0,4.2
		c0.2,0.7,0.5,1.4,1,2c0.5,0.6,1.1,1.1,1.7,1.8c0.6,0.6,1.1,1.4,1.4,2.2c0.1,0.9-0.1,1.9-0.6,2.6c-0.5,0.7-0.9,1.5-1.2,2.3
		c-0.2,0.8-0.2,1.6,0,2.4c0.6,1.5,1.2,3,1.9,4.4c0.3,0.7,0.5,1.5,0.5,2.2c0,0.7-0.2,1.5-0.5,2.1c-0.7,1.1-1.6,2-2.5,2.9
		c-0.8,0.7-1.3,1.6-1.6,2.6c-0.1,0.4-0.1,0.8,0,1.1c0.1,0.4,0.3,0.7,0.5,1c0.3,0.4,0.7,0.6,1.2,0.7
		C131.5,68.9,131.7,68.8,131.7,68.9z"/>
</g>
<path class="st10" d="M163.5,79.8c-0.5-0.7-1.1-1.3-1.8-1.9c-0.7-0.5-1.5-0.9-2.3-1.2c0.5,0,0.9,0,1.4,0.2c0.4,0.2,0.8,0.4,1.2,0.7
	c0.4,0.2,0.7,0.6,1,1C163.3,78.9,163.4,79.3,163.5,79.8z M151.4,124.1c-0.6-1.2-1-2.4-1.2-3.7c-0.3-1.3-0.4-2.6-0.3-3.8
	c0.3,1.2,0.6,2.5,0.8,3.8C151,121.6,151.3,122.9,151.4,124.1z"/>
<path class="st12" d="M67.5,112.2l3.6-3.7c0,0-1.6,26.8-2.6,30s-6.6,13.9-6.6,13.9l4.8-14.7L67.5,112.2L67.5,112.2z"/>
<path class="st4" d="M75.4,104c0.1,0.1-3.1,3.5-7.1,7.6s-7.3,7.4-7.4,7.4s3.1-3.5,7.1-7.7S75.4,103.9,75.4,104z M125.7,101.9
	c0,0.3,0,0.5,0,0.8l-0.3,2.3l-1.3,7.4l-1.8,7.3l-0.7,2.2c-0.1,0.3-0.2,0.6-0.3,0.8c0-0.3,0.1-0.5,0.1-0.8l0.5-2.2l1.7-7.3l1.4-7.4
	l0.4-2.2C125.5,102.4,125.6,102.1,125.7,101.9L125.7,101.9z M109.6,49c0.2,0,0,1.4,1.1,2.6s2.6,1.2,2.6,1.4s-0.4,0.2-1,0.2
	c-0.8-0.1-1.6-0.5-2.2-1.1c-0.5-0.6-0.8-1.4-0.8-2.2C109.3,49.3,109.5,49,109.6,49L109.6,49z"/>
<g>
	<path id="C" class="st8" d="M119.5,176.4c11.4,0,20.6-9.2,20.6-20.5s-9.2-20.5-20.6-20.5S99,144.5,99,155.9
		S108.2,176.4,119.5,176.4z"/>
</g>
<g>
	<path id="C_00000106866059481862416700000013788933516764853900_" d="M119.5,176.4c11.4,0,20.6-9.2,20.6-20.5s-9.2-20.5-20.6-20.5
		S99,144.5,99,155.9S108.2,176.4,119.5,176.4z"/>
</g>
<path class="st3" d="M119.5,172.6c11.4,0,20.6-9.2,20.6-20.5s-9.2-20.5-20.6-20.5S99,140.7,99,152.1S108.2,172.6,119.5,172.6z"/>
<g>
	<path class="st6" d="M119.5,164.2c-0.6,0-1.1-5.4-1.1-12.1s0.5-12.1,1.1-12.1s1.1,5.4,1.1,12.1S120.1,164.2,119.5,164.2z"/>
	<path class="st6" d="M131.7,152.1c0,0.6-5.4,1.1-12.2,1.1s-12.2-0.5-12.2-1.1s5.4-1.1,12.2-1.1S131.7,151.5,131.7,152.1z"/>
</g>
</svg>
